<svg width="750" height="500" viewBox="0 0 750 500" fill="none" xmlns="http://www.w3.org/2000/svg">
<path d="M219.882 122.263L107.678 197.318L218.193 362.535L330.398 287.48L219.882 122.263Z" fill="#F5F5F5"/>
<path d="M272.419 279.659L271.145 287.54L215.367 279.505L216.64 271.624L272.419 279.659Z" fill="#E0E0E0"/>
<path d="M244.328 251.546L252.332 252.7L243.458 307.617L235.453 306.465L244.328 251.546Z" fill="#E0E0E0"/>
<path d="M192.952 181.745C193.032 181.865 181.787 189.526 167.84 198.855C153.888 208.187 142.516 215.653 142.436 215.533C142.356 215.414 153.598 207.754 167.551 198.422C181.498 189.093 192.872 181.626 192.952 181.745Z" fill="#E0E0E0"/>
<path d="M234.217 171.387C234.297 171.507 215.598 184.154 192.458 199.631C169.309 215.114 150.485 227.565 150.405 227.445C150.325 227.326 169.02 214.681 192.168 199.198C215.308 183.721 234.137 171.268 234.217 171.387Z" fill="#E0E0E0"/>
<path d="M242.486 183.753C242.566 183.873 223.867 196.52 200.727 211.997C177.578 227.48 158.754 239.931 158.674 239.811C158.594 239.691 177.289 227.047 200.437 211.564C223.578 196.087 242.406 183.634 242.486 183.753Z" fill="#E0E0E0"/>
<path d="M250.758 196.12C250.838 196.24 232.139 208.887 208.999 224.364C185.85 239.847 167.026 252.298 166.946 252.178C166.866 252.059 185.561 239.414 208.709 223.931C231.85 208.453 250.678 196 250.758 196.12Z" fill="#E0E0E0"/>
<path d="M259.029 208.486C259.109 208.606 240.41 221.252 217.27 236.73C194.121 252.213 175.297 264.664 175.217 264.544C175.137 264.424 193.832 251.78 216.98 236.297C240.12 220.82 258.949 208.367 259.029 208.486Z" fill="#E0E0E0"/>
<path d="M595.078 232.976L500.846 296.009L593.66 434.763L687.892 371.73L595.078 232.976Z" fill="#F5F5F5"/>
<path d="M639.199 365.18L638.13 371.798L591.285 365.049L592.355 358.431L639.199 365.18Z" fill="#E0E0E0"/>
<path d="M615.607 341.569L622.329 342.538L614.876 388.659L608.154 387.691L615.607 341.569Z" fill="#E0E0E0"/>
<path d="M572.459 282.948C572.539 283.068 563.106 289.517 551.392 297.352C539.674 305.189 530.114 311.444 530.034 311.324C529.954 311.204 539.385 304.756 551.103 296.919C562.816 289.085 572.379 282.829 572.459 282.948Z" fill="#E0E0E0"/>
<path d="M607.114 274.249C607.194 274.369 591.501 285.005 572.067 298.004C552.626 311.007 536.807 321.448 536.727 321.328C536.647 321.208 552.337 310.574 571.778 297.571C591.211 284.573 607.034 274.13 607.114 274.249Z" fill="#E0E0E0"/>
<path d="M614.061 284.635C614.141 284.755 598.448 295.392 579.014 308.39C559.573 321.393 543.754 331.834 543.674 331.714C543.594 331.594 559.284 320.96 578.725 307.957C598.158 294.958 613.981 284.515 614.061 284.635Z" fill="#E0E0E0"/>
<path d="M621.006 295.02C621.086 295.14 605.393 305.776 585.959 318.775C566.518 331.778 550.699 342.219 550.619 342.099C550.539 341.98 566.229 331.345 585.67 318.342C605.103 305.344 620.926 294.901 621.006 295.02Z" fill="#E0E0E0"/>
<path d="M627.954 305.406C628.034 305.526 612.341 316.162 592.907 329.161C573.466 342.164 557.647 352.605 557.567 352.485C557.487 352.366 573.177 341.731 592.618 328.728C612.051 315.73 627.874 305.286 627.954 305.406Z" fill="#E0E0E0"/>
<path d="M445.99 128.328L343.172 73.3397L262.203 224.735L365.021 279.724L445.99 128.328Z" fill="#F5F5F5"/>
<path d="M347.421 232.368L340.898 234.602L324.34 188.828L330.864 186.594L347.421 232.368Z" fill="#E0E0E0"/>
<path d="M357.422 199.529L359.799 206.098L314.339 221.667L311.963 215.098L357.422 199.529Z" fill="#E0E0E0"/>
<path d="M389.724 131.993C389.643 132.144 379.215 126.723 366.434 119.888C353.649 113.05 343.353 107.387 343.434 107.236C343.515 107.086 353.941 112.505 366.726 119.342C379.507 126.178 389.805 131.843 389.724 131.993Z" fill="#E0E0E0"/>
<path d="M414.396 159.227C414.315 159.378 397.056 150.304 375.852 138.964C354.64 127.619 337.515 118.304 337.596 118.153C337.677 118.003 354.932 127.074 376.144 138.419C397.348 149.759 414.477 159.076 414.396 159.227Z" fill="#E0E0E0"/>
<path d="M408.337 170.559C408.256 170.71 390.997 161.636 369.793 150.295C348.581 138.95 331.456 129.635 331.537 129.484C331.618 129.334 348.873 138.405 370.085 149.75C391.289 161.09 408.417 170.408 408.337 170.559Z" fill="#E0E0E0"/>
<path d="M402.275 181.89C402.194 182.041 384.935 172.967 363.731 161.626C342.519 150.282 325.394 140.966 325.475 140.815C325.555 140.664 342.811 149.736 364.023 161.081C385.227 172.422 402.356 181.74 402.275 181.89Z" fill="#E0E0E0"/>
<path d="M396.216 193.222C396.135 193.373 378.877 184.299 357.672 172.958C336.46 161.614 319.335 152.298 319.416 152.147C319.497 151.997 336.752 161.068 357.964 172.413C379.168 183.754 396.296 193.072 396.216 193.222Z" fill="#E0E0E0"/>
<path opacity="0.2" d="M396.755 0H394.172V43.983H396.755V0Z" fill="black"/>
<path d="M335.232 97.189H455.693C455.693 97.189 444.571 43.956 394.55 43.956C350.057 43.955 335.232 97.189 335.232 97.189Z" fill="#4C3CC6"/>
<path d="M396.755 0H394.172V43.983H396.755V0Z" fill="#4C3CC6"/>
<path d="M663.667 439.828C663.667 439.972 534.416 440.088 375.014 440.088C215.557 440.088 86.334 439.971 86.334 439.828C86.334 439.684 215.557 439.568 375.014 439.568C534.416 439.568 663.667 439.685 663.667 439.828Z" fill="#263238"/>
<path d="M663.667 439.828C663.667 439.972 534.416 440.088 375.014 440.088C215.557 440.088 86.334 439.971 86.334 439.828C86.334 439.684 215.557 439.568 375.014 439.568C534.416 439.568 663.667 439.685 663.667 439.828Z" fill="#E0E0E0"/>
<path d="M118.285 377.201C121.666 377.32 124.84 379.155 127.07 381.7C129.3 384.244 130.667 387.443 131.542 390.712C133.234 397.035 132.194 404.498 130.391 410.79C123.545 408.343 119.324 401.043 117.415 397.204C114.397 391.138 112.628 378.342 118.285 377.201Z" fill="#4C3CC6"/>
<path d="M140.241 418.454C138.081 415.353 138.03 411.04 139.738 407.668C141.445 404.296 144.726 401.865 148.339 400.755C150.01 400.242 151.948 400.026 153.401 400.997C154.76 401.904 155.347 403.685 155.171 405.309C154.996 406.933 154.173 408.42 153.202 409.734C149.873 414.241 145.824 417.991 140.241 418.454Z" fill="#4C3CC6"/>
<path d="M140.995 439.584C140.962 439.589 140.858 439.12 140.689 438.27C140.506 437.332 140.269 436.121 139.985 434.666C139.445 431.636 138.588 427.327 139.236 422.563C139.859 417.82 141.747 413.766 143.726 411.345C144.7 410.12 145.633 409.253 146.323 408.72C146.657 408.439 146.951 408.267 147.138 408.135C147.329 408.009 147.434 407.95 147.444 407.963C147.519 408.048 145.844 409.08 143.993 411.549C142.118 413.978 140.321 417.963 139.707 422.626C139.069 427.293 139.859 431.563 140.316 434.609C140.561 436.139 140.758 437.379 140.872 438.24C140.985 439.101 141.027 439.58 140.995 439.584Z" fill="#263238"/>
<path d="M120.494 386.826C120.509 386.819 120.604 386.998 120.77 387.344C120.952 387.738 121.186 388.243 121.475 388.868C122.08 390.195 122.93 392.126 123.961 394.521C126.024 399.31 128.78 405.967 131.658 413.385C134.535 420.806 136.987 427.582 138.692 432.509C139.546 434.973 140.219 436.972 140.667 438.36C140.875 439.017 141.043 439.547 141.173 439.961C141.284 440.329 141.334 440.524 141.319 440.53C141.303 440.535 141.223 440.35 141.083 439.992C140.931 439.586 140.735 439.065 140.493 438.42C139.973 436.995 139.255 435.028 138.376 432.621C136.59 427.725 134.09 420.972 131.215 413.556C128.339 406.143 125.633 399.471 123.651 394.651C122.677 392.281 121.881 390.344 121.304 388.941C121.048 388.302 120.841 387.785 120.68 387.382C120.544 387.024 120.479 386.833 120.494 386.826Z" fill="#263238"/>
<path d="M132.868 425.604C128.831 418.735 121.293 414.051 113.346 413.475C111.322 413.328 108.888 413.669 107.986 415.486C107.082 417.306 108.291 419.461 109.67 420.954C115.406 427.167 125.11 429.333 132.944 426.149" fill="#4C3CC6"/>
<path d="M116.428 418.892C116.43 418.859 116.88 418.878 117.695 418.939C118.103 418.967 118.602 419.003 119.173 419.11C119.743 419.216 120.406 419.278 121.112 419.475C121.823 419.649 122.607 419.823 123.419 420.116C124.247 420.361 125.097 420.715 125.99 421.093C127.754 421.894 129.625 422.942 131.407 424.305C133.176 425.684 134.67 427.225 135.885 428.736C136.469 429.511 137.027 430.245 137.462 430.991C137.943 431.708 138.3 432.429 138.635 433.079C138.994 433.718 139.206 434.35 139.441 434.881C139.678 435.412 139.826 435.89 139.944 436.282C140.187 437.063 140.305 437.497 140.274 437.506C140.173 437.541 139.686 435.793 138.338 433.233C137.988 432.6 137.619 431.9 137.131 431.203C136.689 430.477 136.127 429.764 135.544 429.009C134.33 427.538 132.855 426.035 131.118 424.681C129.368 423.343 127.537 422.302 125.81 421.492C124.936 421.109 124.104 420.746 123.293 420.489C122.499 420.185 121.729 419.995 121.032 419.801C118.227 419.091 116.417 418.995 116.428 418.892Z" fill="#263238"/>
<path d="M298.959 234.544L263.598 416.343L258.969 440.142L495.032 438.977C505.626 438.925 515.015 429.518 518.424 415.542L560.283 243.905C562.87 233.295 557.193 222.26 549.15 222.269L310.227 222.52C304.952 222.527 300.34 227.449 298.959 234.544Z" fill="#4C3CC6"/>
<g opacity="0.5">
<path d="M298.959 234.544L263.598 416.343L258.969 440.142L495.032 438.977C505.626 438.925 515.015 429.518 518.424 415.542L560.283 243.905C562.87 233.295 557.193 222.26 549.15 222.269L310.227 222.52C304.952 222.527 300.34 227.449 298.959 234.544Z" fill="black"/>
</g>
<path d="M472.387 404.026L447.393 202.618C446.369 194.365 439.795 188.209 432.033 188.235L377.227 188.414C373.171 188.427 369.282 190.152 366.4 193.215L340.375 220.88L187.949 221.675C178.634 221.724 171.478 230.537 172.713 240.44L195.919 426.593C196.946 434.834 203.508 440.982 211.259 440.966L476.906 440.441C506.493 441.054 509.317 432.316 509.317 432.316C475.41 439.831 472.39 404.049 472.387 404.026Z" fill="url(#paint0_linear_2554_35451)"/>
<g opacity="0.5">
<path d="M357.843 363.717L348.884 373.339L279.881 311.264L288.841 301.642L357.843 363.717Z" fill="white"/>
<path d="M345.128 299.509L355.03 308.416L292.595 375.473L282.693 366.565L345.128 299.509Z" fill="white"/>
</g>
<path d="M497.217 181.654C496.578 181.38 496.119 180.759 496.086 180.018L495.687 170.734C495.661 170.15 495.911 169.588 496.361 169.216C496.811 168.843 497.41 168.704 497.979 168.838C499.471 169.19 501.117 168.865 502.494 167.946C503.762 167.1 504.613 165.854 504.828 164.527C505.044 163.205 504.635 161.742 503.706 160.512C502.711 159.195 501.241 158.308 499.765 158.139C496.754 157.792 493.503 160.099 492.666 163.177C492.396 164.171 491.371 164.759 490.377 164.488C489.366 164.21 488.795 163.192 489.065 162.198C490.379 157.36 495.371 153.876 500.193 154.431C502.693 154.719 505.062 156.115 506.682 158.261C508.224 160.301 508.89 162.803 508.511 165.127C508.129 167.472 506.691 169.63 504.565 171.049C503.029 172.074 501.267 172.64 499.505 172.701L499.815 179.857C499.859 180.887 499.06 181.757 498.03 181.801C497.742 181.814 497.466 181.76 497.217 181.654Z" fill="#4C3CC6"/>
<path d="M499.952 185.446C500.01 186.287 499.375 187.016 498.534 187.073C497.693 187.131 496.964 186.496 496.906 185.655C496.848 184.814 497.483 184.085 498.324 184.027C499.165 183.969 499.894 184.605 499.952 185.446Z" fill="#4C3CC6"/>
<path d="M533.96 168.563C533.948 168.563 533.917 168.357 533.87 167.954C533.823 167.519 533.757 166.927 533.674 166.166C533.629 165.375 533.427 164.419 533.19 163.292C533.058 162.732 532.99 162.109 532.785 161.479C532.59 160.845 532.383 160.172 532.165 159.46C531.197 156.652 529.704 153.284 527.192 149.934C524.698 146.591 521.191 143.288 516.69 140.786C514.473 139.464 511.938 138.543 509.28 137.73C506.581 137.091 503.72 136.543 500.731 136.614C499.236 136.534 497.729 136.753 496.193 136.882C495.426 136.955 494.671 137.16 493.9 137.294C493.129 137.436 492.354 137.587 491.599 137.849C488.512 138.641 485.513 140.097 482.655 141.902C476.918 145.511 472.087 151.383 469.437 158.501C468.108 162.062 467.472 165.966 467.477 169.909C467.398 173.86 468.163 177.873 469.569 181.651L470.02 182.793L470.079 182.944L470.018 183.085C467.51 188.862 465.05 194.528 462.667 200.018L462.246 199.54C467.41 197.556 472.418 195.632 477.222 193.786L477.407 193.715L477.552 193.856C481.707 197.882 486.67 200.603 491.694 202.021C496.734 203.442 501.81 203.515 506.427 202.694C511.054 201.875 515.22 200.105 518.694 197.83C522.178 195.555 524.972 192.789 527.126 189.978C529.264 187.136 530.672 184.222 531.736 181.619C532.672 178.959 533.246 176.598 533.524 174.644C533.642 173.668 533.747 172.8 533.838 172.043C533.858 171.295 533.874 170.659 533.888 170.132C533.904 169.641 533.917 169.253 533.927 168.961C533.939 168.698 533.95 168.563 533.96 168.563C533.969 168.563 533.977 168.696 533.984 168.96C533.988 169.253 533.993 169.64 533.999 170.134C534 170.663 534.002 171.304 534.002 172.056C533.925 172.819 533.837 173.694 533.737 174.678C533.491 176.651 532.945 179.041 532.028 181.74C530.984 184.381 529.585 187.344 527.443 190.24C525.285 193.105 522.472 195.929 518.951 198.259C515.44 200.589 511.219 202.41 506.522 203.264C501.836 204.118 496.675 204.065 491.542 202.635C486.424 201.209 481.36 198.45 477.116 194.354L477.447 194.424C472.645 196.277 467.642 198.209 462.479 200.201L461.724 200.492L462.057 199.723C464.438 194.231 466.894 188.564 469.399 182.786L469.397 183.077L468.936 181.91C467.498 178.049 466.719 173.944 466.8 169.906C466.797 165.876 467.453 161.885 468.815 158.248C471.53 150.977 476.473 145.002 482.325 141.34C485.24 139.508 488.299 138.038 491.442 137.24C492.211 136.977 493 136.826 493.784 136.684C494.568 136.55 495.337 136.345 496.117 136.273C497.678 136.148 499.211 135.933 500.729 136.02C503.767 135.962 506.673 136.53 509.409 137.195C512.105 138.034 514.672 138.985 516.914 140.339C521.465 142.906 524.995 146.281 527.49 149.688C530.004 153.101 531.477 156.524 532.414 159.37C532.624 160.091 532.823 160.774 533.009 161.415C533.206 162.053 533.265 162.682 533.387 163.248C533.604 164.388 533.786 165.352 533.809 166.149C533.864 166.914 533.907 167.512 533.939 167.949C533.964 168.355 533.971 168.562 533.96 168.563Z" fill="#E0E0E0"/>
<defs>
<linearGradient id="paint0_linear_2554_35451" x1="383.662" y1="242.461" x2="235" y2="401.5" gradientUnits="userSpaceOnUse">
<stop stop-color="#4C3CC6"/>
<stop offset="1" stop-color="#7E60F8"/>
</linearGradient>
</defs>
</svg>
