<svg width="330" height="400" viewBox="0 0 330 400" fill="none" xmlns="http://www.w3.org/2000/svg">
<rect x="0.5" y="0.5" width="329" height="399" rx="27.5" fill="white"/>
<rect x="0.5" y="0.5" width="329" height="399" rx="27.5" stroke="#E1E0E5"/>
<path d="M25.0043 40V29.8182H31.527V31.3643H26.8487V34.1286H31.0795V35.6747H26.8487V40H25.0043ZM33.7674 40V29.8182H37.5856C38.3678 29.8182 39.024 29.9541 39.5543 30.2259C40.0879 30.4976 40.4906 30.8788 40.7624 31.3693C41.0375 31.8565 41.1751 32.425 41.1751 33.0746C41.1751 33.7275 41.0359 34.2943 40.7574 34.7749C40.4824 35.2521 40.0763 35.6217 39.5394 35.8835C39.0025 36.142 38.3429 36.2713 37.5607 36.2713H34.8413V34.7401H37.3121C37.7695 34.7401 38.144 34.6771 38.4357 34.5511C38.7274 34.4219 38.9428 34.2346 39.082 33.9893C39.2245 33.7408 39.2958 33.4358 39.2958 33.0746C39.2958 32.7133 39.2245 32.4051 39.082 32.1499C38.9395 31.8913 38.7224 31.6958 38.4307 31.5632C38.1391 31.4273 37.7629 31.3594 37.3022 31.3594H35.6118V40H33.7674ZM39.0273 35.3864L41.5479 40H39.4897L37.0138 35.3864H39.0273ZM43.4329 40V29.8182H50.055V31.3643H45.2773V34.1286H49.712V35.6747H45.2773V38.4538H50.0948V40H43.4329ZM52.4968 40V29.8182H59.1189V31.3643H54.3412V34.1286H58.7759V35.6747H54.3412V38.4538H59.1587V40H52.4968ZM71.1267 32.6172C71.0803 32.183 70.8848 31.8449 70.5401 31.603C70.1987 31.361 69.7545 31.2401 69.2077 31.2401C68.8232 31.2401 68.4934 31.2981 68.2183 31.4141C67.9432 31.5301 67.7328 31.6875 67.5869 31.8864C67.4411 32.0852 67.3665 32.3123 67.3632 32.5675C67.3632 32.7796 67.4113 32.9635 67.5074 33.1193C67.6068 33.2751 67.7411 33.4077 67.9101 33.517C68.0791 33.6231 68.2664 33.7126 68.4719 33.7855C68.6774 33.8584 68.8845 33.9197 69.0933 33.9695L70.0479 34.2081C70.4323 34.2976 70.8019 34.4186 71.1565 34.571C71.5145 34.7235 71.8343 34.9157 72.1161 35.1477C72.4011 35.3797 72.6265 35.6598 72.7922 35.9879C72.9579 36.3161 73.0408 36.7005 73.0408 37.1413C73.0408 37.7379 72.8883 38.2633 72.5834 38.7173C72.2785 39.1681 71.8376 39.5211 71.2609 39.7763C70.6876 40.0282 69.9932 40.1541 69.1778 40.1541C68.3857 40.1541 67.698 40.0315 67.1146 39.7862C66.5346 39.541 66.0805 39.183 65.7524 38.7124C65.4276 38.2417 65.2519 37.6683 65.2254 36.9922H67.0401C67.0666 37.3468 67.176 37.6418 67.3682 37.8771C67.5604 38.1125 67.8107 38.2881 68.1189 38.4041C68.4304 38.5201 68.7785 38.5781 69.1629 38.5781C69.564 38.5781 69.9153 38.5185 70.2169 38.3991C70.5218 38.2765 70.7605 38.1075 70.9328 37.892C71.1052 37.6733 71.193 37.4181 71.1963 37.1264C71.193 36.8613 71.1151 36.6425 70.9626 36.4702C70.8102 36.2945 70.5964 36.1487 70.3213 36.0327C70.0495 35.9134 69.7313 35.8073 69.3668 35.7145L68.2084 35.4162C67.3698 35.2008 66.707 34.8743 66.2197 34.4368C65.7358 33.996 65.4939 33.411 65.4939 32.6818C65.4939 32.0819 65.6563 31.5566 65.9811 31.1058C66.3092 30.6551 66.755 30.3054 67.3185 30.0568C67.8819 29.8049 68.5199 29.679 69.2325 29.679C69.9551 29.679 70.5881 29.8049 71.1317 30.0568C71.6786 30.3054 72.1078 30.6518 72.4193 31.0959C72.7309 31.5367 72.8916 32.0438 72.9016 32.6172H71.1267ZM74.7977 31.3643V29.8182H82.9213V31.3643H79.7742V40H77.9447V31.3643H74.7977ZM93.6942 34.9091C93.6942 36.0062 93.4887 36.9458 93.0777 37.728C92.67 38.5069 92.1132 39.1035 91.4072 39.5178C90.7046 39.9321 89.9075 40.1392 89.0159 40.1392C88.1243 40.1392 87.3255 39.9321 86.6196 39.5178C85.9169 39.1001 85.3601 38.5019 84.9491 37.723C84.5415 36.9408 84.3376 36.0028 84.3376 34.9091C84.3376 33.812 84.5415 32.8741 84.9491 32.0952C85.3601 31.313 85.9169 30.7147 86.6196 30.3004C87.3255 29.8861 88.1243 29.679 89.0159 29.679C89.9075 29.679 90.7046 29.8861 91.4072 30.3004C92.1132 30.7147 92.67 31.313 93.0777 32.0952C93.4887 32.8741 93.6942 33.812 93.6942 34.9091ZM91.8398 34.9091C91.8398 34.1368 91.7188 33.4856 91.4768 32.9553C91.2382 32.4216 90.9067 32.0189 90.4825 31.7472C90.0583 31.4721 89.5694 31.3345 89.0159 31.3345C88.4624 31.3345 87.9735 31.4721 87.5493 31.7472C87.125 32.0189 86.7919 32.4216 86.55 32.9553C86.3113 33.4856 86.192 34.1368 86.192 34.9091C86.192 35.6813 86.3113 36.3343 86.55 36.8679C86.7919 37.3982 87.125 37.8009 87.5493 38.076C87.9735 38.3478 88.4624 38.4837 89.0159 38.4837C89.5694 38.4837 90.0583 38.3478 90.4825 38.076C90.9067 37.8009 91.2382 37.3982 91.4768 36.8679C91.7188 36.3343 91.8398 35.6813 91.8398 34.9091ZM95.9979 40V29.8182H99.8161C100.598 29.8182 101.255 29.9541 101.785 30.2259C102.318 30.4976 102.721 30.8788 102.993 31.3693C103.268 31.8565 103.406 32.425 103.406 33.0746C103.406 33.7275 103.266 34.2943 102.988 34.7749C102.713 35.2521 102.307 35.6217 101.77 35.8835C101.233 36.142 100.573 36.2713 99.7913 36.2713H97.0718V34.7401H99.5427C100 34.7401 100.375 34.6771 100.666 34.5511C100.958 34.4219 101.173 34.2346 101.313 33.9893C101.455 33.7408 101.526 33.4358 101.526 33.0746C101.526 32.7133 101.455 32.4051 101.313 32.1499C101.17 31.8913 100.953 31.6958 100.661 31.5632C100.37 31.4273 99.9934 31.3594 99.5327 31.3594H97.8424V40H95.9979ZM101.258 35.3864L103.778 40H101.72L99.2444 35.3864H101.258ZM106.971 40H105.002L108.587 29.8182H110.864L114.453 40H112.484L109.765 31.9062H109.685L106.971 40ZM107.036 36.0078H112.405V37.4893H107.036V36.0078ZM122.697 33.0696C122.614 32.8011 122.5 32.5608 122.354 32.3487C122.211 32.1333 122.039 31.9493 121.837 31.7969C121.638 31.6444 121.409 31.5301 121.151 31.4538C120.892 31.3743 120.61 31.3345 120.305 31.3345C119.759 31.3345 119.271 31.4721 118.844 31.7472C118.416 32.0223 118.08 32.4266 117.835 32.9602C117.593 33.4905 117.472 34.1368 117.472 34.8991C117.472 35.6681 117.593 36.3194 117.835 36.853C118.077 37.3866 118.413 37.7926 118.844 38.071C119.275 38.3461 119.775 38.4837 120.345 38.4837C120.862 38.4837 121.31 38.3842 121.688 38.1854C122.069 37.9865 122.362 37.7048 122.568 37.3402C122.773 36.9723 122.876 36.5414 122.876 36.0476L123.293 36.1122H120.529V34.6705H124.661V35.8935C124.661 36.7652 124.475 37.5192 124.104 38.1555C123.733 38.7919 123.222 39.2824 122.572 39.6271C121.923 39.9685 121.177 40.1392 120.335 40.1392C119.397 40.1392 118.574 39.9287 117.864 39.5078C117.158 39.0836 116.607 38.482 116.209 37.7031C115.814 36.9209 115.617 35.9929 115.617 34.919C115.617 34.0971 115.733 33.3629 115.965 32.7166C116.201 32.0703 116.529 31.5218 116.95 31.071C117.371 30.6169 117.864 30.2723 118.431 30.0369C118.998 29.7983 119.614 29.679 120.281 29.679C120.844 29.679 121.369 29.7618 121.857 29.9276C122.344 30.09 122.776 30.322 123.154 30.6236C123.535 30.9252 123.849 31.2831 124.094 31.6974C124.339 32.1117 124.5 32.5691 124.576 33.0696H122.697ZM127.004 40V29.8182H133.626V31.3643H128.849V34.1286H133.283V35.6747H128.849V38.4538H133.666V40H127.004ZM146.519 29.8182H148.363V36.4702C148.363 37.1993 148.191 37.8407 147.846 38.3942C147.505 38.9477 147.024 39.3802 146.405 39.6918C145.785 40 145.061 40.1541 144.232 40.1541C143.4 40.1541 142.674 40 142.055 39.6918C141.435 39.3802 140.954 38.9477 140.613 38.3942C140.271 37.8407 140.101 37.1993 140.101 36.4702V29.8182H141.945V36.3161C141.945 36.7403 142.038 37.1181 142.224 37.4496C142.412 37.781 142.678 38.0412 143.019 38.2301C143.36 38.4157 143.765 38.5085 144.232 38.5085C144.699 38.5085 145.104 38.4157 145.445 38.2301C145.79 38.0412 146.055 37.781 146.241 37.4496C146.426 37.1181 146.519 36.7403 146.519 36.3161V29.8182ZM150.928 40V29.8182H154.746C155.529 29.8182 156.185 29.964 156.715 30.2557C157.249 30.5473 157.652 30.9484 157.923 31.4588C158.198 31.9659 158.336 32.5426 158.336 33.1889C158.336 33.8419 158.198 34.4219 157.923 34.929C157.648 35.4361 157.242 35.8355 156.705 36.1271C156.168 36.4155 155.507 36.5597 154.722 36.5597H152.191V35.0433H154.473C154.93 35.0433 155.305 34.9638 155.597 34.8047C155.888 34.6456 156.104 34.4268 156.243 34.1484C156.385 33.87 156.457 33.5502 156.457 33.1889C156.457 32.8277 156.385 32.5095 156.243 32.2344C156.104 31.9593 155.887 31.7455 155.592 31.593C155.3 31.4373 154.924 31.3594 154.463 31.3594H152.773V40H150.928ZM164.083 31.3643V29.8182H172.207V31.3643H169.06V40H167.23V31.3643H164.083ZM182.98 34.9091C182.98 36.0062 182.774 36.9458 182.363 37.728C181.956 38.5069 181.399 39.1035 180.693 39.5178C179.99 39.9321 179.193 40.1392 178.301 40.1392C177.41 40.1392 176.611 39.9321 175.905 39.5178C175.202 39.1001 174.646 38.5019 174.235 37.723C173.827 36.9408 173.623 36.0028 173.623 34.9091C173.623 33.812 173.827 32.8741 174.235 32.0952C174.646 31.313 175.202 30.7147 175.905 30.3004C176.611 29.8861 177.41 29.679 178.301 29.679C179.193 29.679 179.99 29.8861 180.693 30.3004C181.399 30.7147 181.956 31.313 182.363 32.0952C182.774 32.8741 182.98 33.812 182.98 34.9091ZM181.125 34.9091C181.125 34.1368 181.004 33.4856 180.762 32.9553C180.524 32.4216 180.192 32.0189 179.768 31.7472C179.344 31.4721 178.855 31.3345 178.301 31.3345C177.748 31.3345 177.259 31.4721 176.835 31.7472C176.411 32.0189 176.077 32.4216 175.836 32.9553C175.597 33.4856 175.478 34.1368 175.478 34.9091C175.478 35.6813 175.597 36.3343 175.836 36.8679C176.077 37.3982 176.411 37.8009 176.835 38.076C177.259 38.3478 177.748 38.4837 178.301 38.4837C178.855 38.4837 179.344 38.3478 179.768 38.076C180.192 37.8009 180.524 37.3982 180.762 36.8679C181.004 36.3343 181.125 35.6813 181.125 34.9091Z" fill="#2E2E37"/>
<path d="M38.4176 64.9091V94H33.1477V70.0369H32.9773L26.1733 74.3835V69.554L33.4034 64.9091H38.4176ZM55.3568 94.554C53.0178 94.554 51.0102 93.9621 49.3341 92.7784C47.6674 91.5852 46.3843 89.8665 45.4847 87.6222C44.5945 85.3684 44.1494 82.6553 44.1494 79.483C44.1589 76.3106 44.6087 73.6117 45.4989 71.3864C46.3985 69.1515 47.6816 67.447 49.3483 66.2727C51.0244 65.0985 53.0273 64.5114 55.3568 64.5114C57.6864 64.5114 59.6892 65.0985 61.3653 66.2727C63.0415 67.447 64.3246 69.1515 65.2148 71.3864C66.1144 73.6212 66.5642 76.3201 66.5642 79.483C66.5642 82.6648 66.1144 85.3826 65.2148 87.6364C64.3246 89.8807 63.0415 91.5947 61.3653 92.7784C59.6987 93.9621 57.6958 94.554 55.3568 94.554ZM55.3568 90.108C57.175 90.108 58.6097 89.2131 59.6608 87.4233C60.7214 85.6241 61.2517 82.9773 61.2517 79.483C61.2517 77.1723 61.0102 75.2311 60.5273 73.6591C60.0443 72.0871 59.3625 70.9034 58.4818 70.108C57.6011 69.303 56.5595 68.9006 55.3568 68.9006C53.5481 68.9006 52.1182 69.8002 51.067 71.5994C50.0159 73.3892 49.4856 76.017 49.4761 79.483C49.4667 81.803 49.6987 83.7538 50.1722 85.3352C50.6551 86.9167 51.3369 88.1098 52.2176 88.9148C53.0983 89.7102 54.1447 90.108 55.3568 90.108ZM80.8365 94.554C78.4975 94.554 76.4899 93.9621 74.8138 92.7784C73.1471 91.5852 71.864 89.8665 70.9643 87.6222C70.0742 85.3684 69.6291 82.6553 69.6291 79.483C69.6386 76.3106 70.0884 73.6117 70.9785 71.3864C71.8782 69.1515 73.1613 67.447 74.828 66.2727C76.5041 65.0985 78.507 64.5114 80.8365 64.5114C83.1661 64.5114 85.1689 65.0985 86.845 66.2727C88.5212 67.447 89.8043 69.1515 90.6945 71.3864C91.5941 73.6212 92.0439 76.3201 92.0439 79.483C92.0439 82.6648 91.5941 85.3826 90.6945 87.6364C89.8043 89.8807 88.5212 91.5947 86.845 92.7784C85.1784 93.9621 83.1755 94.554 80.8365 94.554ZM80.8365 90.108C82.6547 90.108 84.0893 89.2131 85.1405 87.4233C86.2011 85.6241 86.7314 82.9773 86.7314 79.483C86.7314 77.1723 86.4899 75.2311 86.007 73.6591C85.524 72.0871 84.8422 70.9034 83.9615 70.108C83.0808 69.303 82.0392 68.9006 80.8365 68.9006C79.0278 68.9006 77.5979 69.8002 76.5467 71.5994C75.4956 73.3892 74.9653 76.017 74.9558 79.483C74.9464 81.803 75.1784 83.7538 75.6518 85.3352C76.1348 86.9167 76.8166 88.1098 77.6973 88.9148C78.578 89.7102 79.6244 90.108 80.8365 90.108ZM106.708 82.0597C106.543 81.5426 106.322 81.0795 106.043 80.6705C105.771 80.2557 105.444 79.9034 105.063 79.6136C104.683 79.3182 104.248 79.0937 103.759 78.9403C103.276 78.7869 102.745 78.7102 102.166 78.7102C101.183 78.7102 100.296 78.9631 99.5065 79.4688C98.7168 79.9744 98.0918 80.7159 97.6315 81.6932C97.177 82.6648 96.9497 83.8551 96.9497 85.2642C96.9497 86.679 97.1798 87.875 97.6401 88.8523C98.1003 89.8295 98.731 90.571 99.5321 91.0767C100.333 91.5824 101.245 91.8352 102.268 91.8352C103.217 91.8352 104.043 91.642 104.748 91.2557C105.458 90.8693 106.007 90.3239 106.393 89.6193C106.785 88.9091 106.981 88.0739 106.981 87.1136L107.663 87.2415H102.668V85.0682H109.529V87.054C109.529 88.5199 109.217 89.7926 108.592 90.8722C107.972 91.946 107.114 92.7756 106.018 93.3608C104.927 93.946 103.677 94.2386 102.268 94.2386C100.688 94.2386 99.302 93.875 98.1088 93.1477C96.9213 92.4205 95.9952 91.3892 95.3304 90.054C94.6656 88.7131 94.3332 87.1222 94.3332 85.2812C94.3332 83.8892 94.5264 82.6392 94.9128 81.5312C95.2991 80.4233 95.8418 79.483 96.5406 78.7102C97.2452 77.9318 98.0719 77.3381 99.0207 76.929C99.9753 76.5142 101.018 76.3068 102.149 76.3068C103.092 76.3068 103.97 76.446 104.782 76.7244C105.6 77.0028 106.328 77.3977 106.964 77.9091C107.606 78.4205 108.137 79.0284 108.558 79.733C108.978 80.4318 109.262 81.2074 109.41 82.0597H106.708ZM112.152 94V76.5455H118.544C119.783 76.5455 120.809 76.75 121.621 77.1591C122.434 77.5625 123.042 78.1108 123.445 78.804C123.848 79.4915 124.05 80.267 124.05 81.1307C124.05 81.858 123.917 82.4716 123.649 82.9716C123.382 83.4659 123.024 83.8636 122.576 84.1648C122.132 84.4602 121.644 84.6761 121.11 84.8125V84.983C121.689 85.0114 122.255 85.1989 122.806 85.5455C123.363 85.8864 123.823 86.3722 124.186 87.0028C124.55 87.6335 124.732 88.4006 124.732 89.304C124.732 90.196 124.522 90.9972 124.101 91.7074C123.686 92.4119 123.044 92.9716 122.175 93.3864C121.306 93.7955 120.195 94 118.843 94H112.152ZM114.786 91.7415H118.587C119.848 91.7415 120.752 91.4972 121.297 91.0085C121.843 90.5199 122.115 89.9091 122.115 89.1761C122.115 88.625 121.976 88.1193 121.698 87.6591C121.419 87.1989 121.022 86.8324 120.505 86.5597C119.993 86.2869 119.385 86.1506 118.681 86.1506H114.786V91.7415ZM114.786 84.0966H118.314C118.905 84.0966 119.436 83.983 119.908 83.7557C120.385 83.5284 120.763 83.2102 121.042 82.8011C121.326 82.3864 121.468 81.8977 121.468 81.3352C121.468 80.6136 121.215 80.0085 120.709 79.5199C120.203 79.0312 119.428 78.7869 118.382 78.7869H114.786V84.0966Z" fill="#2E2E37"/>
<path d="M25.0568 133V124.273H30.3239V125.21H26.1136V128.159H30.0511V129.097H26.1136V132.062H30.392V133H25.0568ZM32.978 129.062V133H31.9723V126.455H32.9439V127.477H33.0291C33.1826 127.145 33.4155 126.878 33.728 126.676C34.0405 126.472 34.4439 126.369 34.9382 126.369C35.3814 126.369 35.7692 126.46 36.1016 126.642C36.434 126.821 36.6925 127.094 36.8772 127.46C37.0618 127.824 37.1541 128.284 37.1541 128.841V133H36.1485V128.909C36.1485 128.395 36.0149 127.994 35.7479 127.707C35.4809 127.418 35.1144 127.273 34.6485 127.273C34.3274 127.273 34.0405 127.342 33.7877 127.482C33.5377 127.621 33.3402 127.824 33.1953 128.091C33.0505 128.358 32.978 128.682 32.978 129.062ZM38.8719 126.455H39.8775V133.477C39.8775 133.881 39.8079 134.23 39.6687 134.526C39.5324 134.821 39.325 135.05 39.0466 135.212C38.771 135.374 38.423 135.455 38.0025 135.455C37.9685 135.455 37.9344 135.455 37.9003 135.455C37.8662 135.455 37.8321 135.455 37.798 135.455V134.517C37.8321 134.517 37.8633 134.517 37.8917 134.517C37.9202 134.517 37.9514 134.517 37.9855 134.517C38.2923 134.517 38.5167 134.426 38.6588 134.244C38.8008 134.065 38.8719 133.81 38.8719 133.477V126.455ZM39.3662 125.364C39.1702 125.364 39.0011 125.297 38.8591 125.163C38.7199 125.03 38.6503 124.869 38.6503 124.682C38.6503 124.494 38.7199 124.334 38.8591 124.2C39.0011 124.067 39.1702 124 39.3662 124C39.5622 124 39.7298 124.067 39.869 124.2C40.0111 124.334 40.0821 124.494 40.0821 124.682C40.0821 124.869 40.0111 125.03 39.869 125.163C39.7298 125.297 39.5622 125.364 39.3662 125.364ZM44.2586 133.136C43.6677 133.136 43.1492 132.996 42.7032 132.714C42.26 132.433 41.9134 132.04 41.6634 131.534C41.4163 131.028 41.2927 130.437 41.2927 129.761C41.2927 129.08 41.4163 128.484 41.6634 127.976C41.9134 127.467 42.26 127.072 42.7032 126.791C43.1492 126.51 43.6677 126.369 44.2586 126.369C44.8495 126.369 45.3666 126.51 45.8097 126.791C46.2558 127.072 46.6024 127.467 46.8495 127.976C47.0995 128.484 47.2245 129.08 47.2245 129.761C47.2245 130.437 47.0995 131.028 46.8495 131.534C46.6024 132.04 46.2558 132.433 45.8097 132.714C45.3666 132.996 44.8495 133.136 44.2586 133.136ZM44.2586 132.233C44.7075 132.233 45.0768 132.118 45.3666 131.888C45.6563 131.658 45.8708 131.355 46.01 130.98C46.1492 130.605 46.2188 130.199 46.2188 129.761C46.2188 129.324 46.1492 128.916 46.01 128.538C45.8708 128.161 45.6563 127.855 45.3666 127.622C45.0768 127.389 44.7075 127.273 44.2586 127.273C43.8097 127.273 43.4404 127.389 43.1507 127.622C42.8609 127.855 42.6464 128.161 42.5072 128.538C42.368 128.916 42.2984 129.324 42.2984 129.761C42.2984 130.199 42.368 130.605 42.5072 130.98C42.6464 131.355 42.8609 131.658 43.1507 131.888C43.4404 132.118 43.8097 132.233 44.2586 132.233ZM49.053 135.455C48.8826 135.455 48.7306 135.44 48.5971 135.412C48.4635 135.386 48.3712 135.361 48.3201 135.335L48.5758 134.449C48.8201 134.511 49.036 134.534 49.2235 134.517C49.411 134.5 49.5772 134.416 49.7221 134.266C49.8698 134.118 50.0047 133.878 50.1269 133.545L50.3144 133.034L47.8939 126.455H48.9848L50.7917 131.67H50.8598L52.6667 126.455H53.7576L50.9792 133.955C50.8542 134.293 50.6993 134.572 50.5147 134.794C50.33 135.018 50.1155 135.185 49.8712 135.293C49.6297 135.401 49.357 135.455 49.053 135.455ZM62.345 130.324V126.455H63.3507V133H62.345V131.892H62.2768C62.1234 132.224 61.8848 132.507 61.5609 132.74C61.237 132.97 60.8279 133.085 60.3336 133.085C59.9245 133.085 59.5609 132.996 59.2427 132.817C58.9245 132.635 58.6745 132.362 58.4927 131.999C58.3109 131.632 58.22 131.17 58.22 130.614V126.455H59.2257V130.545C59.2257 131.023 59.3592 131.403 59.6262 131.688C59.8961 131.972 60.2399 132.114 60.6575 132.114C60.9075 132.114 61.1617 132.05 61.4203 131.922C61.6816 131.794 61.9004 131.598 62.0765 131.334C62.2555 131.07 62.345 130.733 62.345 130.324ZM65.0726 135.455V126.455H66.0442V127.494H66.1636C66.2374 127.381 66.3397 127.236 66.4704 127.06C66.6039 126.881 66.7942 126.722 67.0414 126.582C67.2914 126.44 67.6295 126.369 68.0556 126.369C68.6067 126.369 69.0925 126.507 69.513 126.783C69.9334 127.058 70.2616 127.449 70.4974 127.955C70.7332 128.46 70.8511 129.057 70.8511 129.744C70.8511 130.438 70.7332 131.038 70.4974 131.547C70.2616 132.053 69.9349 132.445 69.5172 132.723C69.0996 132.999 68.6181 133.136 68.0726 133.136C67.6522 133.136 67.3155 133.067 67.0627 132.928C66.8099 132.786 66.6153 132.625 66.4789 132.446C66.3425 132.264 66.2374 132.114 66.1636 131.994H66.0783V135.455H65.0726ZM66.0613 129.727C66.0613 130.222 66.1337 130.658 66.2786 131.036C66.4235 131.411 66.6351 131.705 66.9136 131.918C67.192 132.128 67.5329 132.233 67.9363 132.233C68.3567 132.233 68.7076 132.122 68.9888 131.901C69.2729 131.676 69.486 131.375 69.628 130.997C69.7729 130.616 69.8454 130.193 69.8454 129.727C69.8454 129.267 69.7743 128.852 69.6323 128.483C69.4931 128.111 69.2814 127.817 68.9974 127.601C68.7161 127.382 68.3624 127.273 67.9363 127.273C67.5272 127.273 67.1834 127.376 66.905 127.584C66.6266 127.788 66.4164 128.075 66.2743 128.445C66.1323 128.811 66.0613 129.239 66.0613 129.727ZM78.3667 126.455V127.307H74.9747V126.455H78.3667ZM75.9633 124.886H76.969V131.125C76.969 131.409 77.0102 131.622 77.0926 131.764C77.1778 131.903 77.2858 131.997 77.4164 132.045C77.55 132.091 77.6906 132.114 77.8383 132.114C77.9491 132.114 78.04 132.108 78.111 132.097C78.1821 132.082 78.2389 132.071 78.2815 132.062L78.486 132.966C78.4179 132.991 78.3227 133.017 78.2005 133.043C78.0784 133.071 77.9235 133.085 77.736 133.085C77.452 133.085 77.1735 133.024 76.9008 132.902C76.6309 132.78 76.4065 132.594 76.2275 132.344C76.0514 132.094 75.9633 131.778 75.9633 131.398V124.886ZM82.3483 133.136C81.7574 133.136 81.2389 132.996 80.7929 132.714C80.3497 132.433 80.0031 132.04 79.7531 131.534C79.506 131.028 79.3824 130.437 79.3824 129.761C79.3824 129.08 79.506 128.484 79.7531 127.976C80.0031 127.467 80.3497 127.072 80.7929 126.791C81.2389 126.51 81.7574 126.369 82.3483 126.369C82.9392 126.369 83.4562 126.51 83.8994 126.791C84.3455 127.072 84.692 127.467 84.9392 127.976C85.1892 128.484 85.3142 129.08 85.3142 129.761C85.3142 130.437 85.1892 131.028 84.9392 131.534C84.692 132.04 84.3455 132.433 83.8994 132.714C83.4562 132.996 82.9392 133.136 82.3483 133.136ZM82.3483 132.233C82.7972 132.233 83.1665 132.118 83.4562 131.888C83.746 131.658 83.9605 131.355 84.0997 130.98C84.2389 130.605 84.3085 130.199 84.3085 129.761C84.3085 129.324 84.2389 128.916 84.0997 128.538C83.9605 128.161 83.746 127.855 83.4562 127.622C83.1665 127.389 82.7972 127.273 82.3483 127.273C81.8994 127.273 81.5301 127.389 81.2403 127.622C80.9506 127.855 80.7361 128.161 80.5969 128.538C80.4577 128.916 80.3881 129.324 80.3881 129.761C80.3881 130.199 80.4577 130.605 80.5969 130.98C80.7361 131.355 80.9506 131.658 81.2403 131.888C81.5301 132.118 81.8994 132.233 82.3483 132.233ZM93.0355 124.273V133H91.9787V125.381H91.9275L89.7969 126.795V125.722L91.9787 124.273H93.0355ZM98.272 133.119C97.63 133.119 97.0831 132.945 96.6314 132.595C96.1797 132.243 95.8345 131.733 95.5959 131.065C95.3573 130.395 95.2379 129.585 95.2379 128.636C95.2379 127.693 95.3573 126.888 95.5959 126.22C95.8374 125.55 96.184 125.038 96.6357 124.686C97.0902 124.331 97.6357 124.153 98.272 124.153C98.9084 124.153 99.4524 124.331 99.9041 124.686C100.359 125.038 100.705 125.55 100.944 126.22C101.185 126.888 101.306 127.693 101.306 128.636C101.306 129.585 101.187 130.395 100.948 131.065C100.71 131.733 100.364 132.243 99.9127 132.595C99.461 132.945 98.9141 133.119 98.272 133.119ZM98.272 132.182C98.9084 132.182 99.4027 131.875 99.755 131.261C100.107 130.648 100.283 129.773 100.283 128.636C100.283 127.881 100.202 127.237 100.04 126.706C99.8814 126.175 99.6513 125.77 99.3502 125.491C99.0519 125.213 98.6925 125.074 98.272 125.074C97.6414 125.074 97.1485 125.385 96.7933 126.007C96.4382 126.626 96.2607 127.503 96.2607 128.636C96.2607 129.392 96.3402 130.034 96.4993 130.562C96.6584 131.091 96.8871 131.493 97.1854 131.768C97.4865 132.044 97.8487 132.182 98.272 132.182ZM105.652 133.119C105.01 133.119 104.463 132.945 104.011 132.595C103.56 132.243 103.215 131.733 102.976 131.065C102.737 130.395 102.618 129.585 102.618 128.636C102.618 127.693 102.737 126.888 102.976 126.22C103.217 125.55 103.564 125.038 104.016 124.686C104.47 124.331 105.016 124.153 105.652 124.153C106.288 124.153 106.832 124.331 107.284 124.686C107.739 125.038 108.085 125.55 108.324 126.22C108.565 126.888 108.686 127.693 108.686 128.636C108.686 129.585 108.567 130.395 108.328 131.065C108.09 131.733 107.744 132.243 107.293 132.595C106.841 132.945 106.294 133.119 105.652 133.119ZM105.652 132.182C106.288 132.182 106.783 131.875 107.135 131.261C107.487 130.648 107.663 129.773 107.663 128.636C107.663 127.881 107.582 127.237 107.42 126.706C107.261 126.175 107.031 125.77 106.73 125.491C106.432 125.213 106.072 125.074 105.652 125.074C105.021 125.074 104.528 125.385 104.173 126.007C103.818 126.626 103.641 127.503 103.641 128.636C103.641 129.392 103.72 130.034 103.879 130.562C104.038 131.091 104.267 131.493 104.565 131.768C104.867 132.044 105.229 132.182 105.652 132.182ZM116.305 127C116.211 126.713 116.087 126.456 115.934 126.229C115.783 125.999 115.603 125.803 115.393 125.641C115.185 125.479 114.95 125.355 114.685 125.27C114.421 125.185 114.131 125.142 113.816 125.142C113.299 125.142 112.829 125.276 112.406 125.543C111.982 125.81 111.646 126.203 111.396 126.723C111.146 127.243 111.021 127.881 111.021 128.636C111.021 129.392 111.147 130.03 111.4 130.55C111.653 131.07 111.995 131.463 112.427 131.73C112.859 131.997 113.345 132.131 113.884 132.131C114.384 132.131 114.825 132.024 115.205 131.811C115.589 131.595 115.887 131.291 116.1 130.899C116.316 130.504 116.424 130.04 116.424 129.506L116.748 129.574H114.123V128.636H117.447V129.574C117.447 130.293 117.293 130.918 116.987 131.449C116.683 131.98 116.262 132.392 115.725 132.685C115.191 132.974 114.577 133.119 113.884 133.119C113.112 133.119 112.433 132.938 111.847 132.574C111.265 132.21 110.81 131.693 110.484 131.023C110.16 130.352 109.998 129.557 109.998 128.636C109.998 127.946 110.09 127.325 110.275 126.774C110.462 126.22 110.727 125.749 111.068 125.359C111.408 124.97 111.812 124.672 112.278 124.464C112.744 124.257 113.256 124.153 113.816 124.153C114.276 124.153 114.705 124.223 115.103 124.362C115.504 124.499 115.86 124.693 116.173 124.946C116.488 125.196 116.751 125.496 116.961 125.845C117.171 126.192 117.316 126.577 117.396 127H116.305ZM119.137 133V124.273H122.188C122.796 124.273 123.297 124.378 123.692 124.588C124.087 124.795 124.381 125.075 124.574 125.428C124.768 125.777 124.864 126.165 124.864 126.591C124.864 126.966 124.797 127.276 124.664 127.52C124.533 127.764 124.36 127.957 124.144 128.099C123.931 128.241 123.699 128.347 123.449 128.415V128.5C123.716 128.517 123.985 128.611 124.255 128.781C124.525 128.952 124.75 129.196 124.932 129.514C125.114 129.832 125.205 130.222 125.205 130.682C125.205 131.119 125.106 131.513 124.907 131.862C124.708 132.212 124.394 132.489 123.965 132.693C123.536 132.898 122.978 133 122.29 133H119.137ZM120.194 132.062H122.29C122.981 132.062 123.471 131.929 123.76 131.662C124.053 131.392 124.199 131.065 124.199 130.682C124.199 130.386 124.124 130.114 123.973 129.864C123.823 129.611 123.608 129.409 123.33 129.259C123.052 129.105 122.722 129.028 122.341 129.028H120.194V132.062ZM120.194 128.108H122.154C122.472 128.108 122.759 128.045 123.015 127.92C123.273 127.795 123.478 127.619 123.628 127.392C123.782 127.165 123.858 126.898 123.858 126.591C123.858 126.207 123.725 125.882 123.458 125.615C123.191 125.345 122.768 125.21 122.188 125.21H120.194V128.108ZM132.599 133.136C132.008 133.136 131.49 132.996 131.044 132.714C130.601 132.433 130.254 132.04 130.004 131.534C129.757 131.028 129.633 130.437 129.633 129.761C129.633 129.08 129.757 128.484 130.004 127.976C130.254 127.467 130.601 127.072 131.044 126.791C131.49 126.51 132.008 126.369 132.599 126.369C133.19 126.369 133.707 126.51 134.15 126.791C134.596 127.072 134.943 127.467 135.19 127.976C135.44 128.484 135.565 129.08 135.565 129.761C135.565 130.437 135.44 131.028 135.19 131.534C134.943 132.04 134.596 132.433 134.15 132.714C133.707 132.996 133.19 133.136 132.599 133.136ZM132.599 132.233C133.048 132.233 133.417 132.118 133.707 131.888C133.997 131.658 134.211 131.355 134.351 130.98C134.49 130.605 134.559 130.199 134.559 129.761C134.559 129.324 134.49 128.916 134.351 128.538C134.211 128.161 133.997 127.855 133.707 127.622C133.417 127.389 133.048 127.273 132.599 127.273C132.15 127.273 131.781 127.389 131.491 127.622C131.202 127.855 130.987 128.161 130.848 128.538C130.709 128.916 130.639 129.324 130.639 129.761C130.639 130.199 130.709 130.605 130.848 130.98C130.987 131.355 131.202 131.658 131.491 131.888C131.781 132.118 132.15 132.233 132.599 132.233ZM139.895 126.455V127.307H136.367V126.455H139.895ZM137.423 133V125.551C137.423 125.176 137.512 124.864 137.688 124.614C137.864 124.364 138.093 124.176 138.374 124.051C138.655 123.926 138.952 123.864 139.264 123.864C139.512 123.864 139.713 123.884 139.87 123.923C140.026 123.963 140.142 124 140.219 124.034L139.929 124.903C139.878 124.886 139.807 124.865 139.716 124.839C139.628 124.814 139.512 124.801 139.367 124.801C139.034 124.801 138.794 124.885 138.646 125.053C138.502 125.22 138.429 125.466 138.429 125.79V133H137.423ZM147.354 126.455V127.307H143.826V126.455H147.354ZM144.883 133V125.551C144.883 125.176 144.971 124.864 145.147 124.614C145.323 124.364 145.552 124.176 145.833 124.051C146.114 123.926 146.411 123.864 146.724 123.864C146.971 123.864 147.172 123.884 147.329 123.923C147.485 123.963 147.601 124 147.678 124.034L147.388 124.903C147.337 124.886 147.266 124.865 147.175 124.839C147.087 124.814 146.971 124.801 146.826 124.801C146.493 124.801 146.253 124.885 146.106 125.053C145.961 125.22 145.888 125.466 145.888 125.79V133H144.883ZM148.644 133V126.455H149.615V127.443H149.684C149.803 127.119 150.019 126.857 150.331 126.655C150.644 126.453 150.996 126.352 151.388 126.352C151.462 126.352 151.554 126.354 151.665 126.357C151.776 126.359 151.86 126.364 151.916 126.369V127.392C151.882 127.384 151.804 127.371 151.682 127.354C151.563 127.334 151.436 127.324 151.303 127.324C150.985 127.324 150.701 127.391 150.451 127.524C150.203 127.655 150.007 127.837 149.862 128.07C149.72 128.3 149.649 128.562 149.649 128.858V133H148.644ZM155.534 133.136C154.903 133.136 154.359 132.997 153.902 132.719C153.447 132.438 153.096 132.045 152.849 131.543C152.605 131.037 152.483 130.449 152.483 129.778C152.483 129.108 152.605 128.517 152.849 128.006C153.096 127.491 153.44 127.091 153.88 126.804C154.323 126.514 154.84 126.369 155.431 126.369C155.772 126.369 156.109 126.426 156.441 126.54C156.774 126.653 157.076 126.838 157.349 127.094C157.622 127.347 157.839 127.682 158.001 128.099C158.163 128.517 158.244 129.031 158.244 129.642V130.068H153.198V129.199H157.221C157.221 128.83 157.147 128.5 157 128.21C156.855 127.92 156.647 127.692 156.377 127.524C156.11 127.357 155.795 127.273 155.431 127.273C155.031 127.273 154.684 127.372 154.392 127.571C154.102 127.767 153.879 128.023 153.723 128.338C153.566 128.653 153.488 128.991 153.488 129.352V129.932C153.488 130.426 153.573 130.845 153.744 131.189C153.917 131.53 154.157 131.79 154.464 131.969C154.771 132.145 155.127 132.233 155.534 132.233C155.798 132.233 156.037 132.196 156.25 132.122C156.465 132.045 156.652 131.932 156.808 131.781C156.964 131.628 157.085 131.437 157.17 131.21L158.142 131.483C158.039 131.812 157.867 132.102 157.626 132.352C157.385 132.599 157.086 132.793 156.731 132.932C156.376 133.068 155.977 133.136 155.534 133.136ZM162.398 133.136C161.767 133.136 161.223 132.997 160.766 132.719C160.311 132.438 159.961 132.045 159.713 131.543C159.469 131.037 159.347 130.449 159.347 129.778C159.347 129.108 159.469 128.517 159.713 128.006C159.961 127.491 160.304 127.091 160.745 126.804C161.188 126.514 161.705 126.369 162.296 126.369C162.637 126.369 162.973 126.426 163.306 126.54C163.638 126.653 163.941 126.838 164.213 127.094C164.486 127.347 164.703 127.682 164.865 128.099C165.027 128.517 165.108 129.031 165.108 129.642V130.068H160.063V129.199H164.086C164.086 128.83 164.012 128.5 163.864 128.21C163.719 127.92 163.512 127.692 163.242 127.524C162.975 127.357 162.659 127.273 162.296 127.273C161.895 127.273 161.549 127.372 161.256 127.571C160.966 127.767 160.743 128.023 160.587 128.338C160.431 128.653 160.353 128.991 160.353 129.352V129.932C160.353 130.426 160.438 130.845 160.608 131.189C160.782 131.53 161.022 131.79 161.328 131.969C161.635 132.145 161.992 132.233 162.398 132.233C162.662 132.233 162.901 132.196 163.114 132.122C163.33 132.045 163.516 131.932 163.672 131.781C163.828 131.628 163.949 131.437 164.034 131.21L165.006 131.483C164.904 131.812 164.732 132.102 164.49 132.352C164.249 132.599 163.951 132.793 163.595 132.932C163.24 133.068 162.841 133.136 162.398 133.136ZM174.409 127.92L173.506 128.176C173.449 128.026 173.365 127.879 173.255 127.737C173.147 127.592 172.999 127.473 172.811 127.379C172.624 127.286 172.384 127.239 172.091 127.239C171.691 127.239 171.357 127.331 171.09 127.516C170.826 127.697 170.694 127.929 170.694 128.21C170.694 128.46 170.784 128.658 170.966 128.803C171.148 128.947 171.432 129.068 171.819 129.165L172.79 129.403C173.375 129.545 173.811 129.763 174.098 130.055C174.385 130.345 174.529 130.719 174.529 131.176C174.529 131.551 174.421 131.886 174.205 132.182C173.992 132.477 173.694 132.71 173.31 132.881C172.927 133.051 172.481 133.136 171.972 133.136C171.304 133.136 170.752 132.991 170.314 132.702C169.877 132.412 169.6 131.989 169.483 131.432L170.438 131.193C170.529 131.545 170.701 131.81 170.954 131.986C171.209 132.162 171.543 132.25 171.955 132.25C172.424 132.25 172.796 132.151 173.071 131.952C173.35 131.75 173.489 131.509 173.489 131.227C173.489 131 173.409 130.81 173.25 130.656C173.091 130.5 172.847 130.384 172.517 130.307L171.427 130.051C170.827 129.909 170.387 129.689 170.106 129.391C169.827 129.089 169.688 128.713 169.688 128.261C169.688 127.892 169.792 127.565 169.999 127.281C170.209 126.997 170.495 126.774 170.856 126.612C171.219 126.45 171.631 126.369 172.091 126.369C172.739 126.369 173.248 126.511 173.617 126.795C173.989 127.08 174.253 127.455 174.409 127.92ZM178.769 126.455V127.307H175.377V126.455H178.769ZM176.366 124.886H177.372V131.125C177.372 131.409 177.413 131.622 177.495 131.764C177.58 131.903 177.688 131.997 177.819 132.045C177.952 132.091 178.093 132.114 178.241 132.114C178.352 132.114 178.443 132.108 178.514 132.097C178.585 132.082 178.641 132.071 178.684 132.062L178.889 132.966C178.82 132.991 178.725 133.017 178.603 133.043C178.481 133.071 178.326 133.085 178.139 133.085C177.854 133.085 177.576 133.024 177.303 132.902C177.033 132.78 176.809 132.594 176.63 132.344C176.454 132.094 176.366 131.778 176.366 131.398V124.886ZM182.751 133.136C182.16 133.136 181.641 132.996 181.195 132.714C180.752 132.433 180.406 132.04 180.156 131.534C179.908 131.028 179.785 130.437 179.785 129.761C179.785 129.08 179.908 128.484 180.156 127.976C180.406 127.467 180.752 127.072 181.195 126.791C181.641 126.51 182.16 126.369 182.751 126.369C183.342 126.369 183.859 126.51 184.302 126.791C184.748 127.072 185.095 127.467 185.342 127.976C185.592 128.484 185.717 129.08 185.717 129.761C185.717 130.437 185.592 131.028 185.342 131.534C185.095 132.04 184.748 132.433 184.302 132.714C183.859 132.996 183.342 133.136 182.751 133.136ZM182.751 132.233C183.2 132.233 183.569 132.118 183.859 131.888C184.149 131.658 184.363 131.355 184.502 130.98C184.641 130.605 184.711 130.199 184.711 129.761C184.711 129.324 184.641 128.916 184.502 128.538C184.363 128.161 184.149 127.855 183.859 127.622C183.569 127.389 183.2 127.273 182.751 127.273C182.302 127.273 181.933 127.389 181.643 127.622C181.353 127.855 181.139 128.161 180.999 128.538C180.86 128.916 180.791 129.324 180.791 129.761C180.791 130.199 180.86 130.605 180.999 130.98C181.139 131.355 181.353 131.658 181.643 131.888C181.933 132.118 182.302 132.233 182.751 132.233ZM187.132 133V126.455H188.103V127.443H188.172C188.291 127.119 188.507 126.857 188.819 126.655C189.132 126.453 189.484 126.352 189.876 126.352C189.95 126.352 190.042 126.354 190.153 126.357C190.264 126.359 190.348 126.364 190.405 126.369V127.392C190.371 127.384 190.292 127.371 190.17 127.354C190.051 127.334 189.924 127.324 189.791 127.324C189.473 127.324 189.189 127.391 188.939 127.524C188.692 127.655 188.496 127.837 188.351 128.07C188.209 128.3 188.138 128.562 188.138 128.858V133H187.132ZM193.403 133.153C192.988 133.153 192.612 133.075 192.274 132.919C191.936 132.76 191.667 132.531 191.468 132.233C191.269 131.932 191.17 131.568 191.17 131.142C191.17 130.767 191.244 130.463 191.391 130.23C191.539 129.994 191.737 129.81 191.984 129.676C192.231 129.543 192.504 129.443 192.802 129.378C193.103 129.31 193.406 129.256 193.71 129.216C194.107 129.165 194.43 129.126 194.677 129.101C194.927 129.072 195.109 129.026 195.222 128.96C195.339 128.895 195.397 128.781 195.397 128.619V128.585C195.397 128.165 195.282 127.838 195.052 127.605C194.825 127.372 194.48 127.256 194.016 127.256C193.536 127.256 193.16 127.361 192.887 127.571C192.614 127.781 192.423 128.006 192.312 128.244L191.357 127.903C191.528 127.506 191.755 127.196 192.039 126.974C192.326 126.75 192.639 126.594 192.977 126.506C193.318 126.415 193.653 126.369 193.982 126.369C194.193 126.369 194.434 126.395 194.707 126.446C194.982 126.494 195.248 126.595 195.504 126.749C195.762 126.902 195.977 127.134 196.147 127.443C196.318 127.753 196.403 128.168 196.403 128.688V133H195.397V132.114H195.346C195.278 132.256 195.164 132.408 195.005 132.57C194.846 132.732 194.634 132.869 194.37 132.983C194.106 133.097 193.784 133.153 193.403 133.153ZM193.556 132.25C193.954 132.25 194.289 132.172 194.562 132.016C194.837 131.859 195.045 131.658 195.184 131.411C195.326 131.163 195.397 130.903 195.397 130.631V129.71C195.355 129.761 195.261 129.808 195.116 129.851C194.974 129.891 194.809 129.926 194.622 129.957C194.437 129.986 194.257 130.011 194.08 130.034C193.907 130.054 193.766 130.071 193.659 130.085C193.397 130.119 193.153 130.175 192.926 130.251C192.701 130.325 192.519 130.437 192.38 130.588C192.244 130.736 192.176 130.937 192.176 131.193C192.176 131.543 192.305 131.807 192.563 131.986C192.825 132.162 193.156 132.25 193.556 132.25ZM200.76 135.591C200.275 135.591 199.857 135.528 199.508 135.403C199.158 135.281 198.867 135.119 198.634 134.918C198.404 134.719 198.221 134.506 198.084 134.278L198.885 133.716C198.976 133.835 199.091 133.972 199.231 134.125C199.37 134.281 199.56 134.416 199.802 134.53C200.046 134.646 200.366 134.705 200.76 134.705C201.289 134.705 201.725 134.577 202.069 134.321C202.412 134.065 202.584 133.665 202.584 133.119V131.79H202.499C202.425 131.909 202.32 132.057 202.184 132.233C202.05 132.406 201.857 132.561 201.604 132.697C201.354 132.831 201.016 132.898 200.59 132.898C200.062 132.898 199.587 132.773 199.167 132.523C198.749 132.273 198.418 131.909 198.174 131.432C197.932 130.955 197.812 130.375 197.812 129.693C197.812 129.023 197.93 128.439 198.165 127.942C198.401 127.442 198.729 127.055 199.15 126.783C199.57 126.507 200.056 126.369 200.607 126.369C201.033 126.369 201.371 126.44 201.621 126.582C201.874 126.722 202.067 126.881 202.201 127.06C202.337 127.236 202.442 127.381 202.516 127.494H202.618V126.455H203.59V133.188C203.59 133.75 203.462 134.207 203.206 134.56C202.954 134.915 202.613 135.175 202.184 135.339C201.758 135.507 201.283 135.591 200.76 135.591ZM200.726 131.994C201.13 131.994 201.471 131.902 201.749 131.717C202.028 131.533 202.239 131.267 202.384 130.92C202.529 130.574 202.601 130.159 202.601 129.676C202.601 129.205 202.53 128.788 202.388 128.428C202.246 128.067 202.036 127.784 201.758 127.58C201.479 127.375 201.135 127.273 200.726 127.273C200.3 127.273 199.945 127.381 199.661 127.597C199.38 127.812 199.168 128.102 199.026 128.466C198.887 128.83 198.817 129.233 198.817 129.676C198.817 130.131 198.888 130.533 199.03 130.882C199.175 131.229 199.388 131.501 199.67 131.7C199.954 131.896 200.306 131.994 200.726 131.994ZM208.055 133.136C207.425 133.136 206.881 132.997 206.423 132.719C205.969 132.438 205.618 132.045 205.371 131.543C205.126 131.037 205.004 130.449 205.004 129.778C205.004 129.108 205.126 128.517 205.371 128.006C205.618 127.491 205.961 127.091 206.402 126.804C206.845 126.514 207.362 126.369 207.953 126.369C208.294 126.369 208.631 126.426 208.963 126.54C209.295 126.653 209.598 126.838 209.871 127.094C210.143 127.347 210.361 127.682 210.523 128.099C210.685 128.517 210.765 129.031 210.765 129.642V130.068H205.72V129.199H209.743C209.743 128.83 209.669 128.5 209.521 128.21C209.376 127.92 209.169 127.692 208.899 127.524C208.632 127.357 208.317 127.273 207.953 127.273C207.552 127.273 207.206 127.372 206.913 127.571C206.623 127.767 206.4 128.023 206.244 128.338C206.088 128.653 206.01 128.991 206.01 129.352V129.932C206.01 130.426 206.095 130.845 206.265 131.189C206.439 131.53 206.679 131.79 206.986 131.969C207.292 132.145 207.649 132.233 208.055 132.233C208.319 132.233 208.558 132.196 208.771 132.122C208.987 132.045 209.173 131.932 209.329 131.781C209.486 131.628 209.606 131.437 209.692 131.21L210.663 131.483C210.561 131.812 210.389 132.102 210.148 132.352C209.906 132.599 209.608 132.793 209.253 132.932C208.898 133.068 208.498 133.136 208.055 133.136ZM213.675 131.807L213.607 132.267C213.559 132.591 213.485 132.938 213.386 133.307C213.289 133.676 213.188 134.024 213.083 134.351C212.978 134.678 212.891 134.938 212.823 135.131H212.056C212.093 134.949 212.141 134.709 212.201 134.411C212.261 134.112 212.32 133.778 212.38 133.409C212.442 133.043 212.493 132.668 212.533 132.284L212.584 131.807H213.675ZM221.316 135.591C220.83 135.591 220.412 135.528 220.063 135.403C219.713 135.281 219.422 135.119 219.189 134.918C218.959 134.719 218.776 134.506 218.639 134.278L219.441 133.716C219.532 133.835 219.647 133.972 219.786 134.125C219.925 134.281 220.115 134.416 220.357 134.53C220.601 134.646 220.921 134.705 221.316 134.705C221.844 134.705 222.28 134.577 222.624 134.321C222.968 134.065 223.139 133.665 223.139 133.119V131.79H223.054C222.98 131.909 222.875 132.057 222.739 132.233C222.605 132.406 222.412 132.561 222.159 132.697C221.909 132.831 221.571 132.898 221.145 132.898C220.617 132.898 220.142 132.773 219.722 132.523C219.304 132.273 218.973 131.909 218.729 131.432C218.488 130.955 218.367 130.375 218.367 129.693C218.367 129.023 218.485 128.439 218.72 127.942C218.956 127.442 219.284 127.055 219.705 126.783C220.125 126.507 220.611 126.369 221.162 126.369C221.588 126.369 221.926 126.44 222.176 126.582C222.429 126.722 222.622 126.881 222.756 127.06C222.892 127.236 222.997 127.381 223.071 127.494H223.174V126.455H224.145V133.188C224.145 133.75 224.017 134.207 223.762 134.56C223.509 134.915 223.168 135.175 222.739 135.339C222.313 135.507 221.838 135.591 221.316 135.591ZM221.282 131.994C221.685 131.994 222.026 131.902 222.304 131.717C222.583 131.533 222.794 131.267 222.939 130.92C223.084 130.574 223.157 130.159 223.157 129.676C223.157 129.205 223.086 128.788 222.943 128.428C222.801 128.067 222.591 127.784 222.313 127.58C222.034 127.375 221.691 127.273 221.282 127.273C220.855 127.273 220.5 127.381 220.216 127.597C219.935 127.812 219.723 128.102 219.581 128.466C219.442 128.83 219.372 129.233 219.372 129.676C219.372 130.131 219.443 130.533 219.586 130.882C219.73 131.229 219.943 131.501 220.225 131.7C220.509 131.896 220.861 131.994 221.282 131.994ZM225.866 133V126.455H226.872V133H225.866ZM226.377 125.364C226.181 125.364 226.012 125.297 225.87 125.163C225.731 125.03 225.662 124.869 225.662 124.682C225.662 124.494 225.731 124.334 225.87 124.2C226.012 124.067 226.181 124 226.377 124C226.573 124 226.741 124.067 226.88 124.2C227.022 124.334 227.093 124.494 227.093 124.682C227.093 124.869 227.022 125.03 226.88 125.163C226.741 125.297 226.573 125.364 226.377 125.364ZM233.946 126.455L231.526 133H230.503L228.082 126.455H229.173L230.98 131.67H231.048L232.855 126.455H233.946ZM235.153 133V126.455H236.159V133H235.153ZM235.665 125.364C235.469 125.364 235.3 125.297 235.158 125.163C235.018 125.03 234.949 124.869 234.949 124.682C234.949 124.494 235.018 124.334 235.158 124.2C235.3 124.067 235.469 124 235.665 124C235.861 124 236.028 124.067 236.168 124.2C236.31 124.334 236.381 124.494 236.381 124.682C236.381 124.869 236.31 125.03 236.168 125.163C236.028 125.297 235.861 125.364 235.665 125.364ZM238.887 129.062V133H237.881V126.455H238.853V127.477H238.938C239.091 127.145 239.324 126.878 239.637 126.676C239.949 126.472 240.353 126.369 240.847 126.369C241.29 126.369 241.678 126.46 242.01 126.642C242.343 126.821 242.601 127.094 242.786 127.46C242.971 127.824 243.063 128.284 243.063 128.841V133H242.057V128.909C242.057 128.395 241.924 127.994 241.657 127.707C241.39 127.418 241.023 127.273 240.557 127.273C240.236 127.273 239.949 127.342 239.696 127.482C239.446 127.621 239.249 127.824 239.104 128.091C238.959 128.358 238.887 128.682 238.887 129.062ZM247.423 135.591C246.937 135.591 246.519 135.528 246.17 135.403C245.82 135.281 245.529 135.119 245.296 134.918C245.066 134.719 244.883 134.506 244.747 134.278L245.548 133.716C245.639 133.835 245.754 133.972 245.893 134.125C246.032 134.281 246.222 134.416 246.464 134.53C246.708 134.646 247.028 134.705 247.423 134.705C247.951 134.705 248.387 134.577 248.731 134.321C249.075 134.065 249.247 133.665 249.247 133.119V131.79H249.161C249.087 131.909 248.982 132.057 248.846 132.233C248.712 132.406 248.519 132.561 248.266 132.697C248.016 132.831 247.678 132.898 247.252 132.898C246.724 132.898 246.249 132.773 245.829 132.523C245.411 132.273 245.08 131.909 244.836 131.432C244.595 130.955 244.474 130.375 244.474 129.693C244.474 129.023 244.592 128.439 244.827 127.942C245.063 127.442 245.391 127.055 245.812 126.783C246.232 126.507 246.718 126.369 247.269 126.369C247.695 126.369 248.033 126.44 248.283 126.582C248.536 126.722 248.729 126.881 248.863 127.06C248.999 127.236 249.104 127.381 249.178 127.494H249.281V126.455H250.252V133.188C250.252 133.75 250.124 134.207 249.869 134.56C249.616 134.915 249.275 135.175 248.846 135.339C248.42 135.507 247.945 135.591 247.423 135.591ZM247.389 131.994C247.792 131.994 248.133 131.902 248.411 131.717C248.69 131.533 248.901 131.267 249.046 130.92C249.191 130.574 249.264 130.159 249.264 129.676C249.264 129.205 249.193 128.788 249.05 128.428C248.908 128.067 248.698 127.784 248.42 127.58C248.141 127.375 247.798 127.273 247.389 127.273C246.962 127.273 246.607 127.381 246.323 127.597C246.042 127.812 245.83 128.102 245.688 128.466C245.549 128.83 245.479 129.233 245.479 129.676C245.479 130.131 245.55 130.533 245.693 130.882C245.837 131.229 246.05 131.501 246.332 131.7C246.616 131.896 246.968 131.994 247.389 131.994ZM255.876 135.455C255.705 135.455 255.553 135.44 255.42 135.412C255.286 135.386 255.194 135.361 255.143 135.335L255.399 134.449C255.643 134.511 255.859 134.534 256.046 134.517C256.234 134.5 256.4 134.416 256.545 134.266C256.693 134.118 256.828 133.878 256.95 133.545L257.137 133.034L254.717 126.455H255.808L257.614 131.67H257.683L259.489 126.455H260.58L257.802 133.955C257.677 134.293 257.522 134.572 257.337 134.794C257.153 135.018 256.938 135.185 256.694 135.293C256.453 135.401 256.18 135.455 255.876 135.455ZM264.213 133.136C263.622 133.136 263.103 132.996 262.657 132.714C262.214 132.433 261.867 132.04 261.617 131.534C261.37 131.028 261.247 130.437 261.247 129.761C261.247 129.08 261.37 128.484 261.617 127.976C261.867 127.467 262.214 127.072 262.657 126.791C263.103 126.51 263.622 126.369 264.213 126.369C264.803 126.369 265.32 126.51 265.764 126.791C266.21 127.072 266.556 127.467 266.803 127.976C267.053 128.484 267.178 129.08 267.178 129.761C267.178 130.437 267.053 131.028 266.803 131.534C266.556 132.04 266.21 132.433 265.764 132.714C265.32 132.996 264.803 133.136 264.213 133.136ZM264.213 132.233C264.661 132.233 265.031 132.118 265.32 131.888C265.61 131.658 265.825 131.355 265.964 130.98C266.103 130.605 266.173 130.199 266.173 129.761C266.173 129.324 266.103 128.916 265.964 128.538C265.825 128.161 265.61 127.855 265.32 127.622C265.031 127.389 264.661 127.273 264.213 127.273C263.764 127.273 263.394 127.389 263.105 127.622C262.815 127.855 262.6 128.161 262.461 128.538C262.322 128.916 262.252 129.324 262.252 129.761C262.252 130.199 262.322 130.605 262.461 130.98C262.6 131.355 262.815 131.658 263.105 131.888C263.394 132.118 263.764 132.233 264.213 132.233ZM272.719 130.324V126.455H273.724V133H272.719V131.892H272.65C272.497 132.224 272.258 132.507 271.934 132.74C271.611 132.97 271.202 133.085 270.707 133.085C270.298 133.085 269.934 132.996 269.616 132.817C269.298 132.635 269.048 132.362 268.866 131.999C268.684 131.632 268.594 131.17 268.594 130.614V126.455H269.599V130.545C269.599 131.023 269.733 131.403 270 131.688C270.27 131.972 270.613 132.114 271.031 132.114C271.281 132.114 271.535 132.05 271.794 131.922C272.055 131.794 272.274 131.598 272.45 131.334C272.629 131.07 272.719 130.733 272.719 130.324ZM26.8466 148.153C26.4318 148.153 26.0554 148.075 25.7173 147.919C25.3793 147.76 25.1108 147.531 24.9119 147.233C24.7131 146.932 24.6136 146.568 24.6136 146.142C24.6136 145.767 24.6875 145.463 24.8352 145.23C24.983 144.994 25.1804 144.81 25.4276 144.676C25.6747 144.543 25.9474 144.443 26.2457 144.378C26.5469 144.31 26.8494 144.256 27.1534 144.216C27.5511 144.165 27.8736 144.126 28.1207 144.101C28.3707 144.072 28.5526 144.026 28.6662 143.96C28.7827 143.895 28.8409 143.781 28.8409 143.619V143.585C28.8409 143.165 28.7259 142.838 28.4957 142.605C28.2685 142.372 27.9233 142.256 27.4602 142.256C26.9801 142.256 26.6037 142.361 26.331 142.571C26.0582 142.781 25.8665 143.006 25.7557 143.244L24.8011 142.903C24.9716 142.506 25.1989 142.196 25.483 141.974C25.7699 141.75 26.0824 141.594 26.4205 141.506C26.7614 141.415 27.0966 141.369 27.4261 141.369C27.6364 141.369 27.8778 141.395 28.1506 141.446C28.4261 141.494 28.6918 141.595 28.9474 141.749C29.206 141.902 29.4205 142.134 29.5909 142.443C29.7614 142.753 29.8466 143.168 29.8466 143.688V148H28.8409V147.114H28.7898C28.7216 147.256 28.608 147.408 28.4489 147.57C28.2898 147.732 28.0781 147.869 27.8139 147.983C27.5497 148.097 27.2273 148.153 26.8466 148.153ZM27 147.25C27.3977 147.25 27.733 147.172 28.0057 147.016C28.2813 146.859 28.4886 146.658 28.6278 146.411C28.7699 146.163 28.8409 145.903 28.8409 145.631V144.71C28.7983 144.761 28.7045 144.808 28.5597 144.851C28.4176 144.891 28.2528 144.926 28.0653 144.957C27.8807 144.986 27.7003 145.011 27.5241 145.034C27.3509 145.054 27.2102 145.071 27.1023 145.085C26.8409 145.119 26.5966 145.175 26.3693 145.251C26.1449 145.325 25.9631 145.437 25.8239 145.588C25.6875 145.736 25.6193 145.937 25.6193 146.193C25.6193 146.543 25.7486 146.807 26.0071 146.986C26.2685 147.162 26.5994 147.25 27 147.25ZM31.5622 148V141.455H32.5338V142.477H32.619C32.7554 142.128 32.9755 141.857 33.2795 141.663C33.5835 141.467 33.9485 141.369 34.3747 141.369C34.8065 141.369 35.1659 141.467 35.4528 141.663C35.7426 141.857 35.9684 142.128 36.1304 142.477H36.1985C36.3662 142.139 36.6176 141.871 36.9528 141.672C37.288 141.47 37.69 141.369 38.1588 141.369C38.744 141.369 39.2227 141.553 39.5948 141.919C39.967 142.283 40.1531 142.849 40.1531 143.619V148H39.1474V143.619C39.1474 143.136 39.0153 142.791 38.7511 142.584C38.4869 142.376 38.1758 142.273 37.8179 142.273C37.3576 142.273 37.0011 142.412 36.7483 142.69C36.4954 142.966 36.369 143.315 36.369 143.739V148H35.3463V143.517C35.3463 143.145 35.2255 142.845 34.984 142.618C34.7426 142.388 34.4315 142.273 34.0508 142.273C33.7894 142.273 33.5451 142.342 33.3179 142.482C33.0934 142.621 32.9116 142.814 32.7724 143.061C32.636 143.305 32.5679 143.588 32.5679 143.909V148H31.5622ZM41.8719 150.455V141.455H42.8435V142.494H42.9628C43.0366 142.381 43.1389 142.236 43.2696 142.06C43.4031 141.881 43.5935 141.722 43.8406 141.582C44.0906 141.44 44.4287 141.369 44.8548 141.369C45.406 141.369 45.8917 141.507 46.3122 141.783C46.7327 142.058 47.0608 142.449 47.2966 142.955C47.5324 143.46 47.6503 144.057 47.6503 144.744C47.6503 145.438 47.5324 146.038 47.2966 146.547C47.0608 147.053 46.7341 147.445 46.3165 147.723C45.8988 147.999 45.4173 148.136 44.8719 148.136C44.4514 148.136 44.1148 148.067 43.8619 147.928C43.6091 147.786 43.4145 147.625 43.2781 147.446C43.1417 147.264 43.0366 147.114 42.9628 146.994H42.8775V150.455H41.8719ZM42.8605 144.727C42.8605 145.222 42.9329 145.658 43.0778 146.036C43.2227 146.411 43.4344 146.705 43.7128 146.918C43.9912 147.128 44.3321 147.233 44.7355 147.233C45.156 147.233 45.5068 147.122 45.7881 146.901C46.0721 146.676 46.2852 146.375 46.4273 145.997C46.5721 145.616 46.6446 145.193 46.6446 144.727C46.6446 144.267 46.5736 143.852 46.4315 143.483C46.2923 143.111 46.0807 142.817 45.7966 142.601C45.5153 142.382 45.1616 142.273 44.7355 142.273C44.3264 142.273 43.9827 142.376 43.7042 142.584C43.4258 142.788 43.2156 143.075 43.0736 143.445C42.9315 143.811 42.8605 144.239 42.8605 144.727ZM50.07 139.273V148H49.0644V139.273H50.07ZM54.5363 148.136C53.9057 148.136 53.3616 147.997 52.9042 147.719C52.4497 147.438 52.0988 147.045 51.8517 146.543C51.6074 146.037 51.4852 145.449 51.4852 144.778C51.4852 144.108 51.6074 143.517 51.8517 143.006C52.0988 142.491 52.4426 142.091 52.8829 141.804C53.3261 141.514 53.8432 141.369 54.4341 141.369C54.775 141.369 55.1116 141.426 55.444 141.54C55.7764 141.653 56.0789 141.838 56.3517 142.094C56.6244 142.347 56.8417 142.682 57.0037 143.099C57.1656 143.517 57.2466 144.031 57.2466 144.642V145.068H52.2011V144.199H56.2238C56.2238 143.83 56.15 143.5 56.0022 143.21C55.8574 142.92 55.65 142.692 55.3801 142.524C55.113 142.357 54.7977 142.273 54.4341 142.273C54.0335 142.273 53.6869 142.372 53.3943 142.571C53.1045 142.767 52.8815 143.023 52.7253 143.338C52.569 143.653 52.4909 143.991 52.4909 144.352V144.932C52.4909 145.426 52.5761 145.845 52.7466 146.189C52.9199 146.53 53.1599 146.79 53.4667 146.969C53.7736 147.145 54.1301 147.233 54.5363 147.233C54.8005 147.233 55.0392 147.196 55.2522 147.122C55.4682 147.045 55.6542 146.932 55.8105 146.781C55.9667 146.628 56.0875 146.437 56.1727 146.21L57.1443 146.483C57.042 146.812 56.8701 147.102 56.6287 147.352C56.3872 147.599 56.0889 147.793 55.7338 147.932C55.3787 148.068 54.9795 148.136 54.5363 148.136ZM66.5478 142.92L65.6443 143.176C65.5875 143.026 65.5037 142.879 65.3929 142.737C65.285 142.592 65.1372 142.473 64.9497 142.379C64.7622 142.286 64.5222 142.239 64.2296 142.239C63.829 142.239 63.4952 142.331 63.2282 142.516C62.9639 142.697 62.8318 142.929 62.8318 143.21C62.8318 143.46 62.9228 143.658 63.1046 143.803C63.2864 143.947 63.5705 144.068 63.9568 144.165L64.9284 144.403C65.5137 144.545 65.9497 144.763 66.2367 145.055C66.5236 145.345 66.6671 145.719 66.6671 146.176C66.6671 146.551 66.5591 146.886 66.3432 147.182C66.1301 147.477 65.8318 147.71 65.4483 147.881C65.0648 148.051 64.6188 148.136 64.1103 148.136C63.4426 148.136 62.8901 147.991 62.4526 147.702C62.0151 147.412 61.7381 146.989 61.6216 146.432L62.5762 146.193C62.6671 146.545 62.8389 146.81 63.0918 146.986C63.3475 147.162 63.6813 147.25 64.0932 147.25C64.562 147.25 64.9341 147.151 65.2097 146.952C65.4881 146.75 65.6273 146.509 65.6273 146.227C65.6273 146 65.5478 145.81 65.3887 145.656C65.2296 145.5 64.9853 145.384 64.6557 145.307L63.5648 145.051C62.9654 144.909 62.525 144.689 62.2438 144.391C61.9654 144.089 61.8262 143.713 61.8262 143.261C61.8262 142.892 61.9299 142.565 62.1372 142.281C62.3475 141.997 62.633 141.774 62.9938 141.612C63.3574 141.45 63.7693 141.369 64.2296 141.369C64.8773 141.369 65.3858 141.511 65.7551 141.795C66.1273 142.08 66.3915 142.455 66.5478 142.92ZM68.0609 150.455V141.455H69.0325V142.494H69.1518C69.2257 142.381 69.328 142.236 69.4587 142.06C69.5922 141.881 69.7825 141.722 70.0297 141.582C70.2797 141.44 70.6177 141.369 71.0439 141.369C71.595 141.369 72.0808 141.507 72.5013 141.783C72.9217 142.058 73.2498 142.449 73.4856 142.955C73.7214 143.46 73.8393 144.057 73.8393 144.744C73.8393 145.438 73.7214 146.038 73.4856 146.547C73.2498 147.053 72.9231 147.445 72.5055 147.723C72.0879 147.999 71.6064 148.136 71.0609 148.136C70.6405 148.136 70.3038 148.067 70.051 147.928C69.7981 147.786 69.6035 147.625 69.4672 147.446C69.3308 147.264 69.2257 147.114 69.1518 146.994H69.0666V150.455H68.0609ZM69.0496 144.727C69.0496 145.222 69.122 145.658 69.2669 146.036C69.4118 146.411 69.6234 146.705 69.9018 146.918C70.1802 147.128 70.5212 147.233 70.9246 147.233C71.345 147.233 71.6959 147.122 71.9771 146.901C72.2612 146.676 72.4743 146.375 72.6163 145.997C72.7612 145.616 72.8337 145.193 72.8337 144.727C72.8337 144.267 72.7626 143.852 72.6206 143.483C72.4814 143.111 72.2697 142.817 71.9856 142.601C71.7044 142.382 71.3507 142.273 70.9246 142.273C70.5155 142.273 70.1717 142.376 69.8933 142.584C69.6149 142.788 69.4047 143.075 69.2626 143.445C69.1206 143.811 69.0496 144.239 69.0496 144.727ZM77.1796 148.153C76.7648 148.153 76.3884 148.075 76.0503 147.919C75.7122 147.76 75.4438 147.531 75.2449 147.233C75.046 146.932 74.9466 146.568 74.9466 146.142C74.9466 145.767 75.0205 145.463 75.1682 145.23C75.3159 144.994 75.5134 144.81 75.7605 144.676C76.0077 144.543 76.2804 144.443 76.5787 144.378C76.8798 144.31 77.1824 144.256 77.4864 144.216C77.8841 144.165 78.2065 144.126 78.4537 144.101C78.7037 144.072 78.8855 144.026 78.9992 143.96C79.1156 143.895 79.1739 143.781 79.1739 143.619V143.585C79.1739 143.165 79.0588 142.838 78.8287 142.605C78.6014 142.372 78.2563 142.256 77.7932 142.256C77.3131 142.256 76.9367 142.361 76.6639 142.571C76.3912 142.781 76.1994 143.006 76.0887 143.244L75.1341 142.903C75.3046 142.506 75.5318 142.196 75.8159 141.974C76.1029 141.75 76.4154 141.594 76.7534 141.506C77.0943 141.415 77.4296 141.369 77.7591 141.369C77.9693 141.369 78.2108 141.395 78.4835 141.446C78.7591 141.494 79.0247 141.595 79.2804 141.749C79.5389 141.902 79.7534 142.134 79.9239 142.443C80.0943 142.753 80.1796 143.168 80.1796 143.688V148H79.1739V147.114H79.1227C79.0546 147.256 78.9409 147.408 78.7818 147.57C78.6227 147.732 78.4111 147.869 78.1469 147.983C77.8827 148.097 77.5602 148.153 77.1796 148.153ZM77.333 147.25C77.7307 147.25 78.0659 147.172 78.3387 147.016C78.6142 146.859 78.8216 146.658 78.9608 146.411C79.1029 146.163 79.1739 145.903 79.1739 145.631V144.71C79.1313 144.761 79.0375 144.808 78.8926 144.851C78.7506 144.891 78.5858 144.926 78.3983 144.957C78.2137 144.986 78.0333 145.011 77.8571 145.034C77.6838 145.054 77.5432 145.071 77.4352 145.085C77.1739 145.119 76.9296 145.175 76.7023 145.251C76.4779 145.325 76.296 145.437 76.1568 145.588C76.0205 145.736 75.9523 145.937 75.9523 146.193C75.9523 146.543 76.0815 146.807 76.3401 146.986C76.6014 147.162 76.9324 147.25 77.333 147.25ZM84.5542 148.136C83.9406 148.136 83.4122 147.991 82.969 147.702C82.5258 147.412 82.1849 147.013 81.9463 146.504C81.7076 145.996 81.5883 145.415 81.5883 144.761C81.5883 144.097 81.7105 143.51 81.9548 143.001C82.202 142.49 82.5457 142.091 82.986 141.804C83.4292 141.514 83.9463 141.369 84.5372 141.369C84.9974 141.369 85.4122 141.455 85.7815 141.625C86.1508 141.795 86.4534 142.034 86.6892 142.341C86.925 142.648 87.0713 143.006 87.1281 143.415H86.1224C86.0457 143.116 85.8753 142.852 85.611 142.622C85.3497 142.389 84.9974 142.273 84.5542 142.273C84.1622 142.273 83.8184 142.375 83.523 142.58C83.2304 142.781 83.0017 143.067 82.8369 143.436C82.675 143.803 82.594 144.233 82.594 144.727C82.594 145.233 82.6735 145.673 82.8326 146.048C82.9946 146.423 83.2218 146.714 83.5145 146.922C83.8099 147.129 84.1565 147.233 84.5542 147.233C84.8156 147.233 85.0528 147.188 85.2659 147.097C85.4789 147.006 85.6593 146.875 85.8071 146.705C85.9548 146.534 86.0599 146.33 86.1224 146.091H87.1281C87.0713 146.477 86.9307 146.825 86.7062 147.135C86.4846 147.442 86.1906 147.686 85.8241 147.868C85.4605 148.047 85.0372 148.136 84.5542 148.136ZM91.2226 148.136C90.5919 148.136 90.0479 147.997 89.5905 147.719C89.1359 147.438 88.7851 147.045 88.5379 146.543C88.2936 146.037 88.1714 145.449 88.1714 144.778C88.1714 144.108 88.2936 143.517 88.5379 143.006C88.7851 142.491 89.1288 142.091 89.5692 141.804C90.0124 141.514 90.5294 141.369 91.1203 141.369C91.4612 141.369 91.7979 141.426 92.1303 141.54C92.4626 141.653 92.7652 141.838 93.0379 142.094C93.3107 142.347 93.528 142.682 93.6899 143.099C93.8518 143.517 93.9328 144.031 93.9328 144.642V145.068H88.8874V144.199H92.9101C92.9101 143.83 92.8362 143.5 92.6885 143.21C92.5436 142.92 92.3362 142.692 92.0663 142.524C91.7993 142.357 91.4839 142.273 91.1203 142.273C90.7197 142.273 90.3732 142.372 90.0805 142.571C89.7908 142.767 89.5678 143.023 89.4115 143.338C89.2553 143.653 89.1771 143.991 89.1771 144.352V144.932C89.1771 145.426 89.2624 145.845 89.4328 146.189C89.6061 146.53 89.8462 146.79 90.153 146.969C90.4598 147.145 90.8163 147.233 91.2226 147.233C91.4868 147.233 91.7254 147.196 91.9385 147.122C92.1544 147.045 92.3405 146.932 92.4967 146.781C92.653 146.628 92.7737 146.437 92.8589 146.21L93.8305 146.483C93.7283 146.812 93.5564 147.102 93.3149 147.352C93.0734 147.599 92.7751 147.793 92.42 147.932C92.0649 148.068 91.6658 148.136 91.2226 148.136ZM101.444 141.455V142.307H98.0522V141.455H101.444ZM99.0408 139.886H100.047V146.125C100.047 146.409 100.088 146.622 100.17 146.764C100.255 146.903 100.363 146.997 100.494 147.045C100.627 147.091 100.768 147.114 100.916 147.114C101.027 147.114 101.118 147.108 101.189 147.097C101.26 147.082 101.316 147.071 101.359 147.062L101.564 147.966C101.495 147.991 101.4 148.017 101.278 148.043C101.156 148.071 101.001 148.085 100.814 148.085C100.529 148.085 100.251 148.024 99.9783 147.902C99.7084 147.78 99.484 147.594 99.305 147.344C99.1289 147.094 99.0408 146.778 99.0408 146.398V139.886ZM105.426 148.136C104.835 148.136 104.316 147.996 103.87 147.714C103.427 147.433 103.081 147.04 102.831 146.534C102.583 146.028 102.46 145.437 102.46 144.761C102.46 144.08 102.583 143.484 102.831 142.976C103.081 142.467 103.427 142.072 103.87 141.791C104.316 141.51 104.835 141.369 105.426 141.369C106.017 141.369 106.534 141.51 106.977 141.791C107.423 142.072 107.77 142.467 108.017 142.976C108.267 143.484 108.392 144.08 108.392 144.761C108.392 145.437 108.267 146.028 108.017 146.534C107.77 147.04 107.423 147.433 106.977 147.714C106.534 147.996 106.017 148.136 105.426 148.136ZM105.426 147.233C105.875 147.233 106.244 147.118 106.534 146.888C106.824 146.658 107.038 146.355 107.177 145.98C107.316 145.605 107.386 145.199 107.386 144.761C107.386 144.324 107.316 143.916 107.177 143.538C107.038 143.161 106.824 142.855 106.534 142.622C106.244 142.389 105.875 142.273 105.426 142.273C104.977 142.273 104.608 142.389 104.318 142.622C104.028 142.855 103.814 143.161 103.674 143.538C103.535 143.916 103.466 144.324 103.466 144.761C103.466 145.199 103.535 145.605 103.674 145.98C103.814 146.355 104.028 146.658 104.318 146.888C104.608 147.118 104.977 147.233 105.426 147.233ZM117.698 142.92L116.795 143.176C116.738 143.026 116.654 142.879 116.543 142.737C116.435 142.592 116.288 142.473 116.1 142.379C115.913 142.286 115.673 142.239 115.38 142.239C114.979 142.239 114.646 142.331 114.379 142.516C114.114 142.697 113.982 142.929 113.982 143.21C113.982 143.46 114.073 143.658 114.255 143.803C114.437 143.947 114.721 144.068 115.107 144.165L116.079 144.403C116.664 144.545 117.1 144.763 117.387 145.055C117.674 145.345 117.818 145.719 117.818 146.176C117.818 146.551 117.71 146.886 117.494 147.182C117.281 147.477 116.982 147.71 116.599 147.881C116.215 148.051 115.769 148.136 115.261 148.136C114.593 148.136 114.041 147.991 113.603 147.702C113.166 147.412 112.889 146.989 112.772 146.432L113.727 146.193C113.818 146.545 113.989 146.81 114.242 146.986C114.498 147.162 114.832 147.25 115.244 147.25C115.712 147.25 116.085 147.151 116.36 146.952C116.639 146.75 116.778 146.509 116.778 146.227C116.778 146 116.698 145.81 116.539 145.656C116.38 145.5 116.136 145.384 115.806 145.307L114.715 145.051C114.116 144.909 113.675 144.689 113.394 144.391C113.116 144.089 112.977 143.713 112.977 143.261C112.977 142.892 113.08 142.565 113.288 142.281C113.498 141.997 113.783 141.774 114.144 141.612C114.508 141.45 114.92 141.369 115.38 141.369C116.028 141.369 116.536 141.511 116.906 141.795C117.278 142.08 117.542 142.455 117.698 142.92ZM122.058 141.455V142.307H118.666V141.455H122.058ZM119.655 139.886H120.66V146.125C120.66 146.409 120.701 146.622 120.784 146.764C120.869 146.903 120.977 146.997 121.108 147.045C121.241 147.091 121.382 147.114 121.53 147.114C121.64 147.114 121.731 147.108 121.802 147.097C121.873 147.082 121.93 147.071 121.973 147.062L122.177 147.966C122.109 147.991 122.014 148.017 121.892 148.043C121.77 148.071 121.615 148.085 121.427 148.085C121.143 148.085 120.865 148.024 120.592 147.902C120.322 147.78 120.098 147.594 119.919 147.344C119.743 147.094 119.655 146.778 119.655 146.398V139.886ZM126.04 148.136C125.449 148.136 124.93 147.996 124.484 147.714C124.041 147.433 123.694 147.04 123.444 146.534C123.197 146.028 123.074 145.437 123.074 144.761C123.074 144.08 123.197 143.484 123.444 142.976C123.694 142.467 124.041 142.072 124.484 141.791C124.93 141.51 125.449 141.369 126.04 141.369C126.63 141.369 127.147 141.51 127.591 141.791C128.037 142.072 128.383 142.467 128.63 142.976C128.88 143.484 129.005 144.08 129.005 144.761C129.005 145.437 128.88 146.028 128.63 146.534C128.383 147.04 128.037 147.433 127.591 147.714C127.147 147.996 126.63 148.136 126.04 148.136ZM126.04 147.233C126.488 147.233 126.858 147.118 127.147 146.888C127.437 146.658 127.652 146.355 127.791 145.98C127.93 145.605 128 145.199 128 144.761C128 144.324 127.93 143.916 127.791 143.538C127.652 143.161 127.437 142.855 127.147 142.622C126.858 142.389 126.488 142.273 126.04 142.273C125.591 142.273 125.221 142.389 124.932 142.622C124.642 142.855 124.427 143.161 124.288 143.538C124.149 143.916 124.079 144.324 124.079 144.761C124.079 145.199 124.149 145.605 124.288 145.98C124.427 146.355 124.642 146.658 124.932 146.888C125.221 147.118 125.591 147.233 126.04 147.233ZM130.421 148V141.455H131.392V142.443H131.46C131.58 142.119 131.796 141.857 132.108 141.655C132.421 141.453 132.773 141.352 133.165 141.352C133.239 141.352 133.331 141.354 133.442 141.357C133.553 141.359 133.637 141.364 133.693 141.369V142.392C133.659 142.384 133.581 142.371 133.459 142.354C133.34 142.334 133.213 142.324 133.08 142.324C132.762 142.324 132.477 142.391 132.227 142.524C131.98 142.655 131.784 142.837 131.639 143.07C131.497 143.3 131.426 143.562 131.426 143.858V148H130.421ZM137.311 148.136C136.68 148.136 136.136 147.997 135.678 147.719C135.224 147.438 134.873 147.045 134.626 146.543C134.382 146.037 134.259 145.449 134.259 144.778C134.259 144.108 134.382 143.517 134.626 143.006C134.873 142.491 135.217 142.091 135.657 141.804C136.1 141.514 136.617 141.369 137.208 141.369C137.549 141.369 137.886 141.426 138.218 141.54C138.551 141.653 138.853 141.838 139.126 142.094C139.399 142.347 139.616 142.682 139.778 143.099C139.94 143.517 140.021 144.031 140.021 144.642V145.068H134.975V144.199H138.998C138.998 143.83 138.924 143.5 138.776 143.21C138.632 142.92 138.424 142.692 138.154 142.524C137.887 142.357 137.572 142.273 137.208 142.273C136.808 142.273 136.461 142.372 136.169 142.571C135.879 142.767 135.656 143.023 135.499 143.338C135.343 143.653 135.265 143.991 135.265 144.352V144.932C135.265 145.426 135.35 145.845 135.521 146.189C135.694 146.53 135.934 146.79 136.241 146.969C136.548 147.145 136.904 147.233 137.311 147.233C137.575 147.233 137.813 147.196 138.026 147.122C138.242 147.045 138.428 146.932 138.585 146.781C138.741 146.628 138.862 146.437 138.947 146.21L139.919 146.483C139.816 146.812 139.644 147.102 139.403 147.352C139.161 147.599 138.863 147.793 138.508 147.932C138.153 148.068 137.754 148.136 137.311 148.136ZM142.931 146.807L142.862 147.267C142.814 147.591 142.74 147.938 142.641 148.307C142.544 148.676 142.443 149.024 142.338 149.351C142.233 149.678 142.147 149.938 142.078 150.131H141.311C141.348 149.949 141.397 149.709 141.456 149.411C141.516 149.112 141.575 148.778 141.635 148.409C141.698 148.043 141.749 147.668 141.789 147.284L141.84 146.807H142.931ZM147.929 148V141.455H148.9V142.477H148.986C149.122 142.128 149.342 141.857 149.646 141.663C149.95 141.467 150.315 141.369 150.741 141.369C151.173 141.369 151.533 141.467 151.82 141.663C152.109 141.857 152.335 142.128 152.497 142.477H152.565C152.733 142.139 152.984 141.871 153.32 141.672C153.655 141.47 154.057 141.369 154.525 141.369C155.111 141.369 155.589 141.553 155.962 141.919C156.334 142.283 156.52 142.849 156.52 143.619V148H155.514V143.619C155.514 143.136 155.382 142.791 155.118 142.584C154.854 142.376 154.543 142.273 154.185 142.273C153.724 142.273 153.368 142.412 153.115 142.69C152.862 142.966 152.736 143.315 152.736 143.739V148H151.713V143.517C151.713 143.145 151.592 142.845 151.351 142.618C151.109 142.388 150.798 142.273 150.418 142.273C150.156 142.273 149.912 142.342 149.685 142.482C149.46 142.621 149.278 142.814 149.139 143.061C149.003 143.305 148.935 143.588 148.935 143.909V148H147.929ZM160.165 148.153C159.75 148.153 159.374 148.075 159.035 147.919C158.697 147.76 158.429 147.531 158.23 147.233C158.031 146.932 157.932 146.568 157.932 146.142C157.932 145.767 158.006 145.463 158.153 145.23C158.301 144.994 158.499 144.81 158.746 144.676C158.993 144.543 159.266 144.443 159.564 144.378C159.865 144.31 160.168 144.256 160.472 144.216C160.869 144.165 161.192 144.126 161.439 144.101C161.689 144.072 161.871 144.026 161.984 143.96C162.101 143.895 162.159 143.781 162.159 143.619V143.585C162.159 143.165 162.044 142.838 161.814 142.605C161.587 142.372 161.241 142.256 160.778 142.256C160.298 142.256 159.922 142.361 159.649 142.571C159.376 142.781 159.185 143.006 159.074 143.244L158.119 142.903C158.29 142.506 158.517 142.196 158.801 141.974C159.088 141.75 159.401 141.594 159.739 141.506C160.079 141.415 160.415 141.369 160.744 141.369C160.954 141.369 161.196 141.395 161.469 141.446C161.744 141.494 162.01 141.595 162.266 141.749C162.524 141.902 162.739 142.134 162.909 142.443C163.079 142.753 163.165 143.168 163.165 143.688V148H162.159V147.114H162.108C162.04 147.256 161.926 147.408 161.767 147.57C161.608 147.732 161.396 147.869 161.132 147.983C160.868 148.097 160.545 148.153 160.165 148.153ZM160.318 147.25C160.716 147.25 161.051 147.172 161.324 147.016C161.599 146.859 161.807 146.658 161.946 146.411C162.088 146.163 162.159 145.903 162.159 145.631V144.71C162.116 144.761 162.023 144.808 161.878 144.851C161.736 144.891 161.571 144.926 161.383 144.957C161.199 144.986 161.018 145.011 160.842 145.034C160.669 145.054 160.528 145.071 160.42 145.085C160.159 145.119 159.915 145.175 159.687 145.251C159.463 145.325 159.281 145.437 159.142 145.588C159.006 145.736 158.937 145.937 158.937 146.193C158.937 146.543 159.067 146.807 159.325 146.986C159.587 147.162 159.918 147.25 160.318 147.25ZM165.886 144.062V148H164.88V141.455H165.852V142.477H165.937C166.091 142.145 166.323 141.878 166.636 141.676C166.948 141.472 167.352 141.369 167.846 141.369C168.289 141.369 168.677 141.46 169.01 141.642C169.342 141.821 169.6 142.094 169.785 142.46C169.97 142.824 170.062 143.284 170.062 143.841V148H169.056V143.909C169.056 143.395 168.923 142.994 168.656 142.707C168.389 142.418 168.022 142.273 167.556 142.273C167.235 142.273 166.948 142.342 166.696 142.482C166.446 142.621 166.248 142.824 166.103 143.091C165.958 143.358 165.886 143.682 165.886 144.062ZM173.706 148.153C173.291 148.153 172.915 148.075 172.577 147.919C172.239 147.76 171.97 147.531 171.771 147.233C171.572 146.932 171.473 146.568 171.473 146.142C171.473 145.767 171.547 145.463 171.695 145.23C171.842 144.994 172.04 144.81 172.287 144.676C172.534 144.543 172.807 144.443 173.105 144.378C173.406 144.31 173.709 144.256 174.013 144.216C174.411 144.165 174.733 144.126 174.98 144.101C175.23 144.072 175.412 144.026 175.526 143.96C175.642 143.895 175.7 143.781 175.7 143.619V143.585C175.7 143.165 175.585 142.838 175.355 142.605C175.128 142.372 174.783 142.256 174.32 142.256C173.839 142.256 173.463 142.361 173.19 142.571C172.918 142.781 172.726 143.006 172.615 143.244L171.661 142.903C171.831 142.506 172.058 142.196 172.342 141.974C172.629 141.75 172.942 141.594 173.28 141.506C173.621 141.415 173.956 141.369 174.286 141.369C174.496 141.369 174.737 141.395 175.01 141.446C175.286 141.494 175.551 141.595 175.807 141.749C176.065 141.902 176.28 142.134 176.45 142.443C176.621 142.753 176.706 143.168 176.706 143.688V148H175.7V147.114H175.649C175.581 147.256 175.467 147.408 175.308 147.57C175.149 147.732 174.938 147.869 174.673 147.983C174.409 148.097 174.087 148.153 173.706 148.153ZM173.859 147.25C174.257 147.25 174.592 147.172 174.865 147.016C175.141 146.859 175.348 146.658 175.487 146.411C175.629 146.163 175.7 145.903 175.7 145.631V144.71C175.658 144.761 175.564 144.808 175.419 144.851C175.277 144.891 175.112 144.926 174.925 144.957C174.74 144.986 174.56 145.011 174.384 145.034C174.21 145.054 174.07 145.071 173.962 145.085C173.7 145.119 173.456 145.175 173.229 145.251C173.004 145.325 172.822 145.437 172.683 145.588C172.547 145.736 172.479 145.937 172.479 146.193C172.479 146.543 172.608 146.807 172.866 146.986C173.128 147.162 173.459 147.25 173.859 147.25ZM181.064 150.591C180.578 150.591 180.16 150.528 179.811 150.403C179.461 150.281 179.17 150.119 178.937 149.918C178.707 149.719 178.524 149.506 178.387 149.278L179.189 148.716C179.28 148.835 179.395 148.972 179.534 149.125C179.673 149.281 179.863 149.416 180.105 149.53C180.349 149.646 180.669 149.705 181.064 149.705C181.592 149.705 182.028 149.577 182.372 149.321C182.716 149.065 182.887 148.665 182.887 148.119V146.79H182.802C182.728 146.909 182.623 147.057 182.487 147.233C182.353 147.406 182.16 147.561 181.907 147.697C181.657 147.831 181.319 147.898 180.893 147.898C180.365 147.898 179.89 147.773 179.47 147.523C179.052 147.273 178.721 146.909 178.477 146.432C178.235 145.955 178.115 145.375 178.115 144.693C178.115 144.023 178.233 143.439 178.468 142.942C178.704 142.442 179.032 142.055 179.453 141.783C179.873 141.507 180.359 141.369 180.91 141.369C181.336 141.369 181.674 141.44 181.924 141.582C182.177 141.722 182.37 141.881 182.504 142.06C182.64 142.236 182.745 142.381 182.819 142.494H182.922V141.455H183.893V148.188C183.893 148.75 183.765 149.207 183.51 149.56C183.257 149.915 182.916 150.175 182.487 150.339C182.061 150.507 181.586 150.591 181.064 150.591ZM181.03 146.994C181.433 146.994 181.774 146.902 182.052 146.717C182.331 146.533 182.542 146.267 182.687 145.92C182.832 145.574 182.905 145.159 182.905 144.676C182.905 144.205 182.833 143.788 182.691 143.428C182.549 143.067 182.339 142.784 182.061 142.58C181.782 142.375 181.439 142.273 181.03 142.273C180.603 142.273 180.248 142.381 179.964 142.597C179.683 142.812 179.471 143.102 179.329 143.466C179.19 143.83 179.12 144.233 179.12 144.676C179.12 145.131 179.191 145.533 179.333 145.882C179.478 146.229 179.691 146.501 179.973 146.7C180.257 146.896 180.609 146.994 181.03 146.994ZM188.358 148.136C187.728 148.136 187.184 147.997 186.726 147.719C186.272 147.438 185.921 147.045 185.674 146.543C185.429 146.037 185.307 145.449 185.307 144.778C185.307 144.108 185.429 143.517 185.674 143.006C185.921 142.491 186.265 142.091 186.705 141.804C187.148 141.514 187.665 141.369 188.256 141.369C188.597 141.369 188.934 141.426 189.266 141.54C189.598 141.653 189.901 141.838 190.174 142.094C190.446 142.347 190.664 142.682 190.826 143.099C190.988 143.517 191.069 144.031 191.069 144.642V145.068H186.023V144.199H190.046C190.046 143.83 189.972 143.5 189.824 143.21C189.679 142.92 189.472 142.692 189.202 142.524C188.935 142.357 188.62 142.273 188.256 142.273C187.856 142.273 187.509 142.372 187.216 142.571C186.927 142.767 186.704 143.023 186.547 143.338C186.391 143.653 186.313 143.991 186.313 144.352V144.932C186.313 145.426 186.398 145.845 186.569 146.189C186.742 146.53 186.982 146.79 187.289 146.969C187.596 147.145 187.952 147.233 188.358 147.233C188.623 147.233 188.861 147.196 189.074 147.122C189.29 147.045 189.476 146.932 189.633 146.781C189.789 146.628 189.909 146.437 189.995 146.21L190.966 146.483C190.864 146.812 190.692 147.102 190.451 147.352C190.209 147.599 189.911 147.793 189.556 147.932C189.201 148.068 188.802 148.136 188.358 148.136ZM193.978 146.807L193.91 147.267C193.862 147.591 193.788 147.938 193.689 148.307C193.592 148.676 193.491 149.024 193.386 149.351C193.281 149.678 193.194 149.938 193.126 150.131H192.359C192.396 149.949 192.444 149.709 192.504 149.411C192.564 149.112 192.623 148.778 192.683 148.409C192.745 148.043 192.797 147.668 192.836 147.284L192.888 146.807H193.978ZM200.903 148.153C200.488 148.153 200.112 148.075 199.774 147.919C199.436 147.76 199.167 147.531 198.968 147.233C198.769 146.932 198.67 146.568 198.67 146.142C198.67 145.767 198.744 145.463 198.891 145.23C199.039 144.994 199.237 144.81 199.484 144.676C199.731 144.543 200.004 144.443 200.302 144.378C200.603 144.31 200.906 144.256 201.21 144.216C201.607 144.165 201.93 144.126 202.177 144.101C202.427 144.072 202.609 144.026 202.722 143.96C202.839 143.895 202.897 143.781 202.897 143.619V143.585C202.897 143.165 202.782 142.838 202.552 142.605C202.325 142.372 201.98 142.256 201.516 142.256C201.036 142.256 200.66 142.361 200.387 142.571C200.114 142.781 199.923 143.006 199.812 143.244L198.857 142.903C199.028 142.506 199.255 142.196 199.539 141.974C199.826 141.75 200.139 141.594 200.477 141.506C200.818 141.415 201.153 141.369 201.482 141.369C201.693 141.369 201.934 141.395 202.207 141.446C202.482 141.494 202.748 141.595 203.004 141.749C203.262 141.902 203.477 142.134 203.647 142.443C203.818 142.753 203.903 143.168 203.903 143.688V148H202.897V147.114H202.846C202.778 147.256 202.664 147.408 202.505 147.57C202.346 147.732 202.134 147.869 201.87 147.983C201.606 148.097 201.284 148.153 200.903 148.153ZM201.056 147.25C201.454 147.25 201.789 147.172 202.062 147.016C202.337 146.859 202.545 146.658 202.684 146.411C202.826 146.163 202.897 145.903 202.897 145.631V144.71C202.855 144.761 202.761 144.808 202.616 144.851C202.474 144.891 202.309 144.926 202.122 144.957C201.937 144.986 201.757 145.011 201.58 145.034C201.407 145.054 201.266 145.071 201.159 145.085C200.897 145.119 200.653 145.175 200.426 145.251C200.201 145.325 200.019 145.437 199.88 145.588C199.744 145.736 199.676 145.937 199.676 146.193C199.676 146.543 199.805 146.807 200.063 146.986C200.325 147.162 200.656 147.25 201.056 147.25ZM206.624 144.062V148H205.618V141.455H206.59V142.477H206.675C206.829 142.145 207.062 141.878 207.374 141.676C207.687 141.472 208.09 141.369 208.584 141.369C209.028 141.369 209.415 141.46 209.748 141.642C210.08 141.821 210.339 142.094 210.523 142.46C210.708 142.824 210.8 143.284 210.8 143.841V148H209.795V143.909C209.795 143.395 209.661 142.994 209.394 142.707C209.127 142.418 208.76 142.273 208.295 142.273C207.974 142.273 207.687 142.342 207.434 142.482C207.184 142.621 206.986 142.824 206.841 143.091C206.697 143.358 206.624 143.682 206.624 144.062ZM214.99 148.136C214.444 148.136 213.963 147.999 213.545 147.723C213.127 147.445 212.801 147.053 212.565 146.547C212.329 146.038 212.211 145.438 212.211 144.744C212.211 144.057 212.329 143.46 212.565 142.955C212.801 142.449 213.129 142.058 213.549 141.783C213.97 141.507 214.455 141.369 215.007 141.369C215.433 141.369 215.769 141.44 216.017 141.582C216.267 141.722 216.457 141.881 216.588 142.06C216.721 142.236 216.825 142.381 216.899 142.494H216.984V139.273H217.99V148H217.018V146.994H216.899C216.825 147.114 216.72 147.264 216.583 147.446C216.447 147.625 216.252 147.786 215.999 147.928C215.747 148.067 215.41 148.136 214.99 148.136ZM215.126 147.233C215.529 147.233 215.87 147.128 216.149 146.918C216.427 146.705 216.639 146.411 216.784 146.036C216.928 145.658 217.001 145.222 217.001 144.727C217.001 144.239 216.93 143.811 216.788 143.445C216.646 143.075 216.436 142.788 216.157 142.584C215.879 142.376 215.535 142.273 215.126 142.273C214.7 142.273 214.345 142.382 214.061 142.601C213.779 142.817 213.568 143.111 213.426 143.483C213.286 143.852 213.217 144.267 213.217 144.727C213.217 145.193 213.288 145.616 213.43 145.997C213.575 146.375 213.788 146.676 214.069 146.901C214.353 147.122 214.705 147.233 215.126 147.233ZM227.742 142.92L226.839 143.176C226.782 143.026 226.698 142.879 226.588 142.737C226.48 142.592 226.332 142.473 226.144 142.379C225.957 142.286 225.717 142.239 225.424 142.239C225.024 142.239 224.69 142.331 224.423 142.516C224.159 142.697 224.027 142.929 224.027 143.21C224.027 143.46 224.117 143.658 224.299 143.803C224.481 143.947 224.765 144.068 225.152 144.165L226.123 144.403C226.708 144.545 227.144 144.763 227.431 145.055C227.718 145.345 227.862 145.719 227.862 146.176C227.862 146.551 227.754 146.886 227.538 147.182C227.325 147.477 227.027 147.71 226.643 147.881C226.259 148.051 225.813 148.136 225.305 148.136C224.637 148.136 224.085 147.991 223.647 147.702C223.21 147.412 222.933 146.989 222.816 146.432L223.771 146.193C223.862 146.545 224.034 146.81 224.286 146.986C224.542 147.162 224.876 147.25 225.288 147.25C225.757 147.25 226.129 147.151 226.404 146.952C226.683 146.75 226.822 146.509 226.822 146.227C226.822 146 226.742 145.81 226.583 145.656C226.424 145.5 226.18 145.384 225.85 145.307L224.759 145.051C224.16 144.909 223.72 144.689 223.438 144.391C223.16 144.089 223.021 143.713 223.021 143.261C223.021 142.892 223.125 142.565 223.332 142.281C223.542 141.997 223.828 141.774 224.188 141.612C224.552 141.45 224.964 141.369 225.424 141.369C226.072 141.369 226.581 141.511 226.95 141.795C227.322 142.08 227.586 142.455 227.742 142.92ZM230.261 144.062V148H229.256V139.273H230.261V142.477H230.347C230.5 142.139 230.73 141.871 231.037 141.672C231.347 141.47 231.758 141.369 232.273 141.369C232.719 141.369 233.109 141.459 233.445 141.638C233.78 141.814 234.04 142.085 234.224 142.452C234.412 142.815 234.506 143.278 234.506 143.841V148H233.5V143.909C233.5 143.389 233.365 142.987 233.095 142.703C232.828 142.416 232.457 142.273 231.983 142.273C231.653 142.273 231.358 142.342 231.097 142.482C230.838 142.621 230.633 142.824 230.483 143.091C230.335 143.358 230.261 143.682 230.261 144.062ZM238.152 148.153C237.737 148.153 237.36 148.075 237.022 147.919C236.684 147.76 236.416 147.531 236.217 147.233C236.018 146.932 235.919 146.568 235.919 146.142C235.919 145.767 235.992 145.463 236.14 145.23C236.288 144.994 236.485 144.81 236.733 144.676C236.98 144.543 237.252 144.443 237.551 144.378C237.852 144.31 238.154 144.256 238.458 144.216C238.856 144.165 239.179 144.126 239.426 144.101C239.676 144.072 239.858 144.026 239.971 143.96C240.088 143.895 240.146 143.781 240.146 143.619V143.585C240.146 143.165 240.031 142.838 239.801 142.605C239.573 142.372 239.228 142.256 238.765 142.256C238.285 142.256 237.909 142.361 237.636 142.571C237.363 142.781 237.171 143.006 237.061 143.244L236.106 142.903C236.277 142.506 236.504 142.196 236.788 141.974C237.075 141.75 237.387 141.594 237.725 141.506C238.066 141.415 238.402 141.369 238.731 141.369C238.941 141.369 239.183 141.395 239.456 141.446C239.731 141.494 239.997 141.595 240.252 141.749C240.511 141.902 240.725 142.134 240.896 142.443C241.066 142.753 241.152 143.168 241.152 143.688V148H240.146V147.114H240.095C240.027 147.256 239.913 147.408 239.754 147.57C239.595 147.732 239.383 147.869 239.119 147.983C238.855 148.097 238.532 148.153 238.152 148.153ZM238.305 147.25C238.703 147.25 239.038 147.172 239.311 147.016C239.586 146.859 239.794 146.658 239.933 146.411C240.075 146.163 240.146 145.903 240.146 145.631V144.71C240.103 144.761 240.01 144.808 239.865 144.851C239.723 144.891 239.558 144.926 239.37 144.957C239.186 144.986 239.005 145.011 238.829 145.034C238.656 145.054 238.515 145.071 238.407 145.085C238.146 145.119 237.902 145.175 237.674 145.251C237.45 145.325 237.268 145.437 237.129 145.588C236.992 145.736 236.924 145.937 236.924 146.193C236.924 146.543 237.054 146.807 237.312 146.986C237.573 147.162 237.904 147.25 238.305 147.25ZM242.867 148V141.455H243.839V142.443H243.907C244.026 142.119 244.242 141.857 244.555 141.655C244.867 141.453 245.219 141.352 245.611 141.352C245.685 141.352 245.778 141.354 245.888 141.357C245.999 141.359 246.083 141.364 246.14 141.369V142.392C246.106 142.384 246.028 142.371 245.906 142.354C245.786 142.334 245.66 142.324 245.526 142.324C245.208 142.324 244.924 142.391 244.674 142.524C244.427 142.655 244.231 142.837 244.086 143.07C243.944 143.3 243.873 143.562 243.873 143.858V148H242.867ZM249.757 148.136C249.126 148.136 248.582 147.997 248.125 147.719C247.67 147.438 247.32 147.045 247.072 146.543C246.828 146.037 246.706 145.449 246.706 144.778C246.706 144.108 246.828 143.517 247.072 143.006C247.32 142.491 247.663 142.091 248.104 141.804C248.547 141.514 249.064 141.369 249.655 141.369C249.996 141.369 250.332 141.426 250.665 141.54C250.997 141.653 251.3 141.838 251.572 142.094C251.845 142.347 252.063 142.682 252.224 143.099C252.386 143.517 252.467 144.031 252.467 144.642V145.068H247.422V144.199H251.445C251.445 143.83 251.371 143.5 251.223 143.21C251.078 142.92 250.871 142.692 250.601 142.524C250.334 142.357 250.018 142.273 249.655 142.273C249.254 142.273 248.908 142.372 248.615 142.571C248.325 142.767 248.102 143.023 247.946 143.338C247.79 143.653 247.712 143.991 247.712 144.352V144.932C247.712 145.426 247.797 145.845 247.967 146.189C248.141 146.53 248.381 146.79 248.688 146.969C248.994 147.145 249.351 147.233 249.757 147.233C250.021 147.233 250.26 147.196 250.473 147.122C250.689 147.045 250.875 146.932 251.031 146.781C251.188 146.628 251.308 146.437 251.393 146.21L252.365 146.483C252.263 146.812 252.091 147.102 251.849 147.352C251.608 147.599 251.31 147.793 250.955 147.932C250.599 148.068 250.2 148.136 249.757 148.136ZM257.78 150.455C257.609 150.455 257.457 150.44 257.324 150.412C257.19 150.386 257.098 150.361 257.047 150.335L257.303 149.449C257.547 149.511 257.763 149.534 257.95 149.517C258.138 149.5 258.304 149.416 258.449 149.266C258.597 149.118 258.732 148.878 258.854 148.545L259.041 148.034L256.621 141.455H257.712L259.519 146.67H259.587L261.394 141.455H262.484L259.706 148.955C259.581 149.293 259.426 149.572 259.242 149.794C259.057 150.018 258.842 150.185 258.598 150.293C258.357 150.401 258.084 150.455 257.78 150.455ZM266.117 148.136C265.526 148.136 265.007 147.996 264.561 147.714C264.118 147.433 263.771 147.04 263.521 146.534C263.274 146.028 263.151 145.437 263.151 144.761C263.151 144.08 263.274 143.484 263.521 142.976C263.771 142.467 264.118 142.072 264.561 141.791C265.007 141.51 265.526 141.369 266.117 141.369C266.707 141.369 267.225 141.51 267.668 141.791C268.114 142.072 268.46 142.467 268.707 142.976C268.957 143.484 269.082 144.08 269.082 144.761C269.082 145.437 268.957 146.028 268.707 146.534C268.46 147.04 268.114 147.433 267.668 147.714C267.225 147.996 266.707 148.136 266.117 148.136ZM266.117 147.233C266.565 147.233 266.935 147.118 267.225 146.888C267.514 146.658 267.729 146.355 267.868 145.98C268.007 145.605 268.077 145.199 268.077 144.761C268.077 144.324 268.007 143.916 267.868 143.538C267.729 143.161 267.514 142.855 267.225 142.622C266.935 142.389 266.565 142.273 266.117 142.273C265.668 142.273 265.298 142.389 265.009 142.622C264.719 142.855 264.504 143.161 264.365 143.538C264.226 143.916 264.156 144.324 264.156 144.761C264.156 145.199 264.226 145.605 264.365 145.98C264.504 146.355 264.719 146.658 265.009 146.888C265.298 147.118 265.668 147.233 266.117 147.233ZM274.623 145.324V141.455H275.628V148H274.623V146.892H274.554C274.401 147.224 274.162 147.507 273.839 147.74C273.515 147.97 273.106 148.085 272.611 148.085C272.202 148.085 271.839 147.996 271.52 147.817C271.202 147.635 270.952 147.362 270.77 146.999C270.589 146.632 270.498 146.17 270.498 145.614V141.455H271.503V145.545C271.503 146.023 271.637 146.403 271.904 146.688C272.174 146.972 272.518 147.114 272.935 147.114C273.185 147.114 273.439 147.05 273.698 146.922C273.959 146.794 274.178 146.598 274.354 146.334C274.533 146.07 274.623 145.733 274.623 145.324ZM277.35 148V141.455H278.322V142.443H278.39C278.509 142.119 278.725 141.857 279.038 141.655C279.35 141.453 279.703 141.352 280.095 141.352C280.168 141.352 280.261 141.354 280.372 141.357C280.482 141.359 280.566 141.364 280.623 141.369V142.392C280.589 142.384 280.511 142.371 280.389 142.354C280.269 142.334 280.143 142.324 280.009 142.324C279.691 142.324 279.407 142.391 279.157 142.524C278.91 142.655 278.714 142.837 278.569 143.07C278.427 143.3 278.356 143.562 278.356 143.858V148H277.35ZM27.8352 156.455V157.307H24.3068V156.455H27.8352ZM25.3636 163V155.551C25.3636 155.176 25.4517 154.864 25.6278 154.614C25.804 154.364 26.0327 154.176 26.3139 154.051C26.5952 153.926 26.892 153.864 27.2045 153.864C27.4517 153.864 27.6534 153.884 27.8097 153.923C27.9659 153.963 28.0824 154 28.1591 154.034L27.8693 154.903C27.8182 154.886 27.7472 154.865 27.6562 154.839C27.5682 154.814 27.4517 154.801 27.3068 154.801C26.9744 154.801 26.7344 154.885 26.5866 155.053C26.4418 155.22 26.3693 155.466 26.3693 155.79V163H25.3636ZM29.1247 163V156.455H30.1304V163H29.1247ZM29.636 155.364C29.44 155.364 29.271 155.297 29.1289 155.163C28.9897 155.03 28.9201 154.869 28.9201 154.682C28.9201 154.494 28.9897 154.334 29.1289 154.2C29.271 154.067 29.44 154 29.636 154C29.8321 154 29.9997 154.067 30.1389 154.2C30.2809 154.334 30.3519 154.494 30.3519 154.682C30.3519 154.869 30.2809 155.03 30.1389 155.163C29.9997 155.297 29.8321 155.364 29.636 155.364ZM32.858 154.273V163H31.8523V154.273H32.858ZM37.3243 163.136C36.6936 163.136 36.1496 162.997 35.6922 162.719C35.2377 162.438 34.8868 162.045 34.6396 161.543C34.3953 161.037 34.2732 160.449 34.2732 159.778C34.2732 159.108 34.3953 158.517 34.6396 158.006C34.8868 157.491 35.2306 157.091 35.6709 156.804C36.1141 156.514 36.6311 156.369 37.222 156.369C37.5629 156.369 37.8996 156.426 38.232 156.54C38.5644 156.653 38.8669 156.838 39.1396 157.094C39.4124 157.347 39.6297 157.682 39.7916 158.099C39.9536 158.517 40.0345 159.031 40.0345 159.642V160.068H34.9891V159.199H39.0118C39.0118 158.83 38.9379 158.5 38.7902 158.21C38.6453 157.92 38.4379 157.692 38.1681 157.524C37.901 157.357 37.5857 157.273 37.222 157.273C36.8215 157.273 36.4749 157.372 36.1823 157.571C35.8925 157.767 35.6695 158.023 35.5132 158.338C35.357 158.653 35.2788 158.991 35.2788 159.352V159.932C35.2788 160.426 35.3641 160.845 35.5345 161.189C35.7078 161.53 35.9479 161.79 36.2547 161.969C36.5615 162.145 36.9181 162.233 37.3243 162.233C37.5885 162.233 37.8271 162.196 38.0402 162.122C38.2561 162.045 38.4422 161.932 38.5985 161.781C38.7547 161.628 38.8754 161.437 38.9607 161.21L39.9323 161.483C39.83 161.812 39.6581 162.102 39.4166 162.352C39.1752 162.599 38.8769 162.793 38.5217 162.932C38.1666 163.068 37.7675 163.136 37.3243 163.136ZM46.0807 157.92L45.1773 158.176C45.1205 158.026 45.0367 157.879 44.9259 157.737C44.8179 157.592 44.6702 157.473 44.4827 157.379C44.2952 157.286 44.0552 157.239 43.7625 157.239C43.362 157.239 43.0282 157.331 42.7611 157.516C42.4969 157.697 42.3648 157.929 42.3648 158.21C42.3648 158.46 42.4557 158.658 42.6375 158.803C42.8194 158.947 43.1035 159.068 43.4898 159.165L44.4614 159.403C45.0466 159.545 45.4827 159.763 45.7696 160.055C46.0566 160.345 46.2 160.719 46.2 161.176C46.2 161.551 46.0921 161.886 45.8762 162.182C45.6631 162.477 45.3648 162.71 44.9813 162.881C44.5978 163.051 44.1517 163.136 43.6432 163.136C42.9756 163.136 42.4231 162.991 41.9856 162.702C41.5481 162.412 41.2711 161.989 41.1546 161.432L42.1091 161.193C42.2 161.545 42.3719 161.81 42.6248 161.986C42.8804 162.162 43.2142 162.25 43.6262 162.25C44.0949 162.25 44.4671 162.151 44.7427 161.952C45.0211 161.75 45.1603 161.509 45.1603 161.227C45.1603 161 45.0807 160.81 44.9216 160.656C44.7625 160.5 44.5182 160.384 44.1887 160.307L43.0978 160.051C42.4983 159.909 42.058 159.689 41.7767 159.391C41.4983 159.089 41.3591 158.713 41.3591 158.261C41.3591 157.892 41.4628 157.565 41.6702 157.281C41.8804 156.997 42.166 156.774 42.5267 156.612C42.8904 156.45 43.3023 156.369 43.7625 156.369C44.4103 156.369 44.9188 156.511 45.2881 156.795C45.6603 157.08 45.9245 157.455 46.0807 157.92ZM52.3318 163L50.3375 156.455H51.3943L52.8091 161.466H52.8773L54.275 156.455H55.3489L56.7296 161.449H56.7978L58.2125 156.455H59.2693L57.275 163H56.2864L54.8546 157.972H54.7523L53.3205 163H52.3318ZM60.4789 163V156.455H61.4846V163H60.4789ZM60.9903 155.364C60.7942 155.364 60.6252 155.297 60.4832 155.163C60.3439 155.03 60.2743 154.869 60.2743 154.682C60.2743 154.494 60.3439 154.334 60.4832 154.2C60.6252 154.067 60.7942 154 60.9903 154C61.1863 154 61.3539 154.067 61.4931 154.2C61.6351 154.334 61.7062 154.494 61.7062 154.682C61.7062 154.869 61.6351 155.03 61.4931 155.163C61.3539 155.297 61.1863 155.364 60.9903 155.364ZM66.0531 156.455V157.307H62.6611V156.455H66.0531ZM63.6497 154.886H64.6554V161.125C64.6554 161.409 64.6966 161.622 64.779 161.764C64.8642 161.903 64.9722 161.997 65.1029 162.045C65.2364 162.091 65.377 162.114 65.5247 162.114C65.6355 162.114 65.7264 162.108 65.7975 162.097C65.8685 162.082 65.9253 162.071 65.9679 162.062L66.1725 162.966C66.1043 162.991 66.0091 163.017 65.8869 163.043C65.7648 163.071 65.61 163.085 65.4225 163.085C65.1384 163.085 64.86 163.024 64.5872 162.902C64.3173 162.78 64.0929 162.594 63.9139 162.344C63.7378 162.094 63.6497 161.778 63.6497 161.398V154.886ZM68.5922 159.062V163H67.5865V154.273H68.5922V157.477H68.6775C68.8309 157.139 69.061 156.871 69.3678 156.672C69.6775 156.47 70.0894 156.369 70.6036 156.369C71.0496 156.369 71.4402 156.459 71.7755 156.638C72.1107 156.814 72.3706 157.085 72.5553 157.452C72.7428 157.815 72.8365 158.278 72.8365 158.841V163H71.8309V158.909C71.8309 158.389 71.6959 157.987 71.426 157.703C71.159 157.416 70.7883 157.273 70.3138 157.273C69.9843 157.273 69.6888 157.342 69.4275 157.482C69.1689 157.621 68.9644 157.824 68.8138 158.091C68.6661 158.358 68.5922 158.682 68.5922 159.062ZM80.5557 163.136C79.925 163.136 79.381 162.997 78.9236 162.719C78.4691 162.438 78.1182 162.045 77.8711 161.543C77.6267 161.037 77.5046 160.449 77.5046 159.778C77.5046 159.108 77.6267 158.517 77.8711 158.006C78.1182 157.491 78.462 157.091 78.9023 156.804C79.3455 156.514 79.8625 156.369 80.4534 156.369C80.7943 156.369 81.131 156.426 81.4634 156.54C81.7958 156.653 82.0983 156.838 82.3711 157.094C82.6438 157.347 82.8611 157.682 83.023 158.099C83.185 158.517 83.2659 159.031 83.2659 159.642V160.068H78.2205V159.199H82.2432C82.2432 158.83 82.1693 158.5 82.0216 158.21C81.8767 157.92 81.6693 157.692 81.3995 157.524C81.1324 157.357 80.8171 157.273 80.4534 157.273C80.0529 157.273 79.7063 157.372 79.4137 157.571C79.1239 157.767 78.9009 158.023 78.7446 158.338C78.5884 158.653 78.5103 158.991 78.5103 159.352V159.932C78.5103 160.426 78.5955 160.845 78.7659 161.189C78.9392 161.53 79.1793 161.79 79.4861 161.969C79.7929 162.145 80.1495 162.233 80.5557 162.233C80.8199 162.233 81.0586 162.196 81.2716 162.122C81.4875 162.045 81.6736 161.932 81.8299 161.781C81.9861 161.628 82.1068 161.437 82.1921 161.21L83.1637 161.483C83.0614 161.812 82.8895 162.102 82.648 162.352C82.4066 162.599 82.1083 162.793 81.7532 162.932C81.398 163.068 80.9989 163.136 80.5557 163.136ZM86.6019 163.153C86.1871 163.153 85.8107 163.075 85.4726 162.919C85.1346 162.76 84.8661 162.531 84.6672 162.233C84.4684 161.932 84.369 161.568 84.369 161.142C84.369 160.767 84.4428 160.463 84.5905 160.23C84.7383 159.994 84.9357 159.81 85.1829 159.676C85.43 159.543 85.7028 159.443 86.0011 159.378C86.3022 159.31 86.6047 159.256 86.9087 159.216C87.3065 159.165 87.6289 159.126 87.8761 159.101C88.1261 159.072 88.3079 159.026 88.4215 158.96C88.538 158.895 88.5962 158.781 88.5962 158.619V158.585C88.5962 158.165 88.4812 157.838 88.2511 157.605C88.0238 157.372 87.6786 157.256 87.2155 157.256C86.7354 157.256 86.359 157.361 86.0863 157.571C85.8136 157.781 85.6218 158.006 85.511 158.244L84.5565 157.903C84.7269 157.506 84.9542 157.196 85.2383 156.974C85.5252 156.75 85.8377 156.594 86.1758 156.506C86.5167 156.415 86.8519 156.369 87.1815 156.369C87.3917 156.369 87.6332 156.395 87.9059 156.446C88.1815 156.494 88.4471 156.595 88.7028 156.749C88.9613 156.902 89.1758 157.134 89.3462 157.443C89.5167 157.753 89.6019 158.168 89.6019 158.688V163H88.5962V162.114H88.5451C88.4769 162.256 88.3633 162.408 88.2042 162.57C88.0451 162.732 87.8334 162.869 87.5692 162.983C87.305 163.097 86.9826 163.153 86.6019 163.153ZM86.7553 162.25C87.153 162.25 87.4883 162.172 87.761 162.016C88.0366 161.859 88.244 161.658 88.3832 161.411C88.5252 161.163 88.5962 160.903 88.5962 160.631V159.71C88.5536 159.761 88.4599 159.808 88.315 159.851C88.1729 159.891 88.0082 159.926 87.8207 159.957C87.636 159.986 87.4556 160.011 87.2795 160.034C87.1062 160.054 86.9655 160.071 86.8576 160.085C86.5962 160.119 86.3519 160.175 86.1246 160.251C85.9002 160.325 85.7184 160.437 85.5792 160.588C85.4428 160.736 85.3746 160.937 85.3746 161.193C85.3746 161.543 85.5039 161.807 85.7624 161.986C86.0238 162.162 86.3547 162.25 86.7553 162.25ZM95.9539 157.92L95.0504 158.176C94.9936 158.026 94.9098 157.879 94.799 157.737C94.6911 157.592 94.5433 157.473 94.3558 157.379C94.1683 157.286 93.9283 157.239 93.6357 157.239C93.2351 157.239 92.9013 157.331 92.6342 157.516C92.37 157.697 92.2379 157.929 92.2379 158.21C92.2379 158.46 92.3289 158.658 92.5107 158.803C92.6925 158.947 92.9766 159.068 93.3629 159.165L94.3345 159.403C94.9198 159.545 95.3558 159.763 95.6428 160.055C95.9297 160.345 96.0732 160.719 96.0732 161.176C96.0732 161.551 95.9652 161.886 95.7493 162.182C95.5362 162.477 95.2379 162.71 94.8544 162.881C94.4709 163.051 94.0249 163.136 93.5164 163.136C92.8487 163.136 92.2962 162.991 91.8587 162.702C91.4212 162.412 91.1442 161.989 91.0277 161.432L91.9823 161.193C92.0732 161.545 92.245 161.81 92.4979 161.986C92.7536 162.162 93.0874 162.25 93.4993 162.25C93.9681 162.25 94.3402 162.151 94.6158 161.952C94.8942 161.75 95.0334 161.509 95.0334 161.227C95.0334 161 94.9539 160.81 94.7948 160.656C94.6357 160.5 94.3914 160.384 94.0618 160.307L92.9709 160.051C92.3715 159.909 91.9311 159.689 91.6499 159.391C91.3715 159.089 91.2323 158.713 91.2323 158.261C91.2323 157.892 91.336 157.565 91.5433 157.281C91.7536 156.997 92.0391 156.774 92.3999 156.612C92.7635 156.45 93.1754 156.369 93.6357 156.369C94.2834 156.369 94.7919 156.511 95.1612 156.795C95.5334 157.08 95.7976 157.455 95.9539 157.92ZM100.211 163.136C99.5807 163.136 99.0366 162.997 98.5792 162.719C98.1247 162.438 97.7738 162.045 97.5267 161.543C97.2824 161.037 97.1602 160.449 97.1602 159.778C97.1602 159.108 97.2824 158.517 97.5267 158.006C97.7738 157.491 98.1176 157.091 98.5579 156.804C99.0011 156.514 99.5182 156.369 100.109 156.369C100.45 156.369 100.787 156.426 101.119 156.54C101.451 156.653 101.754 156.838 102.027 157.094C102.299 157.347 102.517 157.682 102.679 158.099C102.841 158.517 102.922 159.031 102.922 159.642V160.068H97.8761V159.199H101.899C101.899 158.83 101.825 158.5 101.677 158.21C101.532 157.92 101.325 157.692 101.055 157.524C100.788 157.357 100.473 157.273 100.109 157.273C99.7085 157.273 99.3619 157.372 99.0693 157.571C98.7795 157.767 98.5565 158.023 98.4003 158.338C98.244 158.653 98.1659 158.991 98.1659 159.352V159.932C98.1659 160.426 98.2511 160.845 98.4216 161.189C98.5949 161.53 98.8349 161.79 99.1417 161.969C99.4486 162.145 99.8051 162.233 100.211 162.233C100.476 162.233 100.714 162.196 100.927 162.122C101.143 162.045 101.329 161.932 101.485 161.781C101.642 161.628 101.762 161.437 101.848 161.21L102.819 161.483C102.717 161.812 102.545 162.102 102.304 162.352C102.062 162.599 101.764 162.793 101.409 162.932C101.054 163.068 100.655 163.136 100.211 163.136Z" fill="#737379"/>
<rect x="24" y="186" width="282" height="190" rx="8" fill="#F6F6F7"/>
<path d="M86 249C86 233.915 86 226.373 90.6863 221.686C95.3726 217 102.915 217 118 217H127.85C134.159 217 137.313 217 140.16 218.132C140.371 218.216 140.579 218.304 140.786 218.396C143.583 219.648 145.782 221.909 150.18 226.432C154.413 230.784 156.53 232.96 157.698 235.675C157.784 235.876 157.866 236.078 157.945 236.283C159 239.043 159 242.078 159 248.15V297C159 312.085 159 319.627 154.314 324.314C149.627 329 142.085 329 127 329H118C102.915 329 95.3726 329 90.6863 324.314C86 319.627 86 312.085 86 297V249Z" fill="#FF9900"/>
<rect x="85" y="233" width="160" height="112" rx="16" fill="#FFCA28"/>
<g clip-path="url(#clip0_255_11196)">
<path d="M168.916 275.68C169.148 275.833 169.366 276.011 169.568 276.212L174.771 281.415C174.972 281.617 175.149 281.835 175.303 282.067H168.916V275.68Z" fill="#B56D00"/>
<path d="M158.157 275H166.64C166.762 275 166.881 275.006 167.001 275.016V283.025C167.001 283.554 167.43 283.982 167.959 283.982H175.967C175.977 284.102 175.983 284.222 175.983 284.343V298.86C175.983 301.143 174.126 303 171.843 303H158.157C155.874 303 154.017 301.143 154.017 298.86V279.14C154.017 276.857 155.874 275 158.157 275ZM159.268 295.182H169.5C170.029 295.182 170.457 294.754 170.457 294.225C170.457 293.696 170.029 293.267 169.5 293.267H159.268C158.739 293.267 158.311 293.696 158.311 294.225C158.311 294.754 158.739 295.182 159.268 295.182ZM159.268 290.587H165.079C165.608 290.587 166.036 290.158 166.036 289.629C166.036 289.101 165.608 288.672 165.079 288.672H159.268C158.739 288.672 158.311 289.101 158.311 289.629C158.311 290.159 158.739 290.587 159.268 290.587Z" fill="#B56D00"/>
</g>
<defs>
<clipPath id="clip0_255_11196">
<rect width="28" height="28" fill="white" transform="matrix(-1 0 0 1 179 275)"/>
</clipPath>
</defs>
</svg>
