<svg width="146" height="40" viewBox="0 0 146 40" fill="none" xmlns="http://www.w3.org/2000/svg">
<rect x="1" y="0.5" width="39" height="39" rx="7.5" fill="url(#paint0_linear_11_355)"/>
<rect x="1" y="0.5" width="39" height="39" rx="7.5" stroke="url(#paint1_linear_11_355)"/>
<path d="M24.8308 27.665L24.5752 27.6818H15.0455C11.7066 27.6818 9 24.9752 9 21.6364C9 18.2976 11.7066 15.5909 15.0455 15.5909C15.8314 15.5909 16.5812 15.7406 17.2687 16.0127L17.649 16.1632L17.8719 15.8202C19.2424 13.7112 21.6177 12.3182 24.3182 12.3182C28.5607 12.3182 32 15.7574 32 20C32 24.0703 28.8341 27.4015 24.8308 27.665Z" fill="url(#paint2_linear_11_355)" stroke="url(#paint3_linear_11_355)"/>
<path d="M53.7912 26.5V13.4091H56.1626V19.424H56.3224L61.4297 13.4091H64.3253L59.2628 19.2834L64.37 26.5H61.5192L57.6136 20.8878L56.1626 22.6009V26.5H53.7912ZM69.1364 26.6918C68.1521 26.6918 67.3019 26.4872 66.586 26.0781C65.8744 25.6648 65.3268 25.081 64.9433 24.3267C64.5597 23.5682 64.368 22.6754 64.368 21.6484C64.368 20.6385 64.5597 19.7521 64.9433 18.9893C65.3311 18.2223 65.8722 17.6257 66.5668 17.1996C67.2614 16.7692 68.0775 16.554 69.015 16.554C69.6201 16.554 70.1911 16.652 70.7281 16.848C71.2693 17.0398 71.7465 17.3381 72.1599 17.7429C72.5775 18.1477 72.9056 18.6634 73.1443 19.2898C73.3829 19.9119 73.5022 20.6534 73.5022 21.5142V22.2237H65.4546V20.6641H71.2842C71.2799 20.2209 71.184 19.8267 70.9965 19.4815C70.809 19.1321 70.547 18.8572 70.2103 18.657C69.8779 18.4567 69.4901 18.3565 69.047 18.3565C68.5739 18.3565 68.1585 18.4716 67.8005 18.7017C67.4426 18.9276 67.1634 19.2259 66.9632 19.5966C66.7671 19.9631 66.667 20.3658 66.6627 20.8047V22.1662C66.6627 22.7372 66.7671 23.2273 66.9759 23.6364C67.1847 24.0412 67.4766 24.3523 67.8516 24.5696C68.2266 24.7827 68.6656 24.8892 69.1684 24.8892C69.5051 24.8892 69.8097 24.8423 70.0825 24.7486C70.3552 24.6506 70.5917 24.5078 70.792 24.3203C70.9923 24.1328 71.1436 23.9006 71.2458 23.6236L73.4063 23.8665C73.27 24.4375 73.01 24.9361 72.6265 25.3622C72.2472 25.7841 71.7614 26.1122 71.1691 26.3466C70.5768 26.5767 69.8992 26.6918 69.1364 26.6918ZM79.4464 26.6918C78.462 26.6918 77.6119 26.4872 76.8959 26.0781C76.1843 25.6648 75.6367 25.081 75.2532 24.3267C74.8697 23.5682 74.6779 22.6754 74.6779 21.6484C74.6779 20.6385 74.8697 19.7521 75.2532 18.9893C75.641 18.2223 76.1822 17.6257 76.8768 17.1996C77.5714 16.7692 78.3874 16.554 79.3249 16.554C79.93 16.554 80.5011 16.652 81.038 16.848C81.5792 17.0398 82.0565 17.3381 82.4698 17.7429C82.8874 18.1477 83.2155 18.6634 83.4542 19.2898C83.6928 19.9119 83.8121 20.6534 83.8121 21.5142V22.2237H75.7646V20.6641H81.5941C81.5898 20.2209 81.494 19.8267 81.3065 19.4815C81.119 19.1321 80.8569 18.8572 80.5202 18.657C80.1878 18.4567 79.8001 18.3565 79.3569 18.3565C78.8839 18.3565 78.4684 18.4716 78.1104 18.7017C77.7525 18.9276 77.4734 19.2259 77.2731 19.5966C77.0771 19.9631 76.9769 20.3658 76.9726 20.8047V22.1662C76.9726 22.7372 77.0771 23.2273 77.2859 23.6364C77.4947 24.0412 77.7866 24.3523 78.1616 24.5696C78.5366 24.7827 78.9755 24.8892 79.4783 24.8892C79.815 24.8892 80.1197 24.8423 80.3924 24.7486C80.6651 24.6506 80.9016 24.5078 81.1019 24.3203C81.3022 24.1328 81.4535 23.9006 81.5557 23.6236L83.7163 23.8665C83.5799 24.4375 83.32 24.9361 82.9364 25.3622C82.5572 25.7841 82.0714 26.1122 81.479 26.3466C80.8867 26.5767 80.2092 26.6918 79.4464 26.6918ZM85.4097 30.1818V16.6818H87.6853V18.3054H87.8195C87.9388 18.0668 88.1071 17.8132 88.3245 17.5447C88.5418 17.272 88.8358 17.0398 89.2066 16.848C89.5773 16.652 90.0503 16.554 90.6256 16.554C91.3841 16.554 92.0681 16.7479 92.6775 17.1357C93.2911 17.5192 93.7769 18.0881 94.1348 18.8423C94.4971 19.5923 94.6782 20.5128 94.6782 21.6037C94.6782 22.6818 94.5013 23.598 94.1476 24.3523C93.7939 25.1065 93.3124 25.6818 92.703 26.0781C92.0937 26.4744 91.4033 26.6726 90.632 26.6726C90.0695 26.6726 89.6029 26.5788 89.2321 26.3913C88.8614 26.2038 88.5631 25.978 88.3373 25.7138C88.1157 25.4453 87.9431 25.1918 87.8195 24.9531H87.7236V30.1818H85.4097ZM87.6789 21.5909C87.6789 22.2259 87.7684 22.782 87.9473 23.2592C88.1306 23.7365 88.3927 24.1094 88.7336 24.3778C89.0787 24.642 89.4963 24.7741 89.9864 24.7741C90.4978 24.7741 90.926 24.6378 91.2712 24.3651C91.6164 24.0881 91.8763 23.7109 92.051 23.2337C92.23 22.7521 92.3195 22.2045 92.3195 21.5909C92.3195 20.9815 92.2321 20.4403 92.0574 19.9673C91.8827 19.4943 91.6228 19.1236 91.2776 18.8551C90.9324 18.5866 90.502 18.4524 89.9864 18.4524C89.4921 18.4524 89.0723 18.5824 88.7272 18.8423C88.382 19.1023 88.1199 19.4666 87.941 19.9354C87.7662 20.4041 87.6789 20.956 87.6789 21.5909ZM107.607 17.826H105.217C105.148 17.4339 105.023 17.0866 104.839 16.7841C104.656 16.4773 104.428 16.2173 104.156 16.0043C103.883 15.7912 103.572 15.6314 103.222 15.5249C102.877 15.4141 102.504 15.3587 102.104 15.3587C101.392 15.3587 100.761 15.5376 100.212 15.8956C99.6619 16.2493 99.2315 16.7692 98.9204 17.4553C98.6094 18.1371 98.4538 18.9702 98.4538 19.9545C98.4538 20.956 98.6094 21.7997 98.9204 22.4858C99.2358 23.1676 99.6662 23.6832 100.212 24.0327C100.761 24.3778 101.39 24.5504 102.097 24.5504C102.489 24.5504 102.856 24.4993 103.197 24.397C103.542 24.2905 103.851 24.1349 104.124 23.9304C104.401 23.7259 104.633 23.4744 104.82 23.1761C105.012 22.8778 105.144 22.5369 105.217 22.1534L107.607 22.1662C107.518 22.7884 107.324 23.3722 107.026 23.9176C106.732 24.4631 106.346 24.9446 105.869 25.3622C105.391 25.7756 104.833 26.0994 104.194 26.3338C103.555 26.5639 102.845 26.679 102.065 26.679C100.915 26.679 99.8878 26.4126 98.9844 25.88C98.081 25.3473 97.3693 24.5781 96.8494 23.5724C96.3295 22.5668 96.0696 21.3608 96.0696 19.9545C96.0696 18.544 96.3317 17.3381 96.8558 16.3366C97.38 15.331 98.0937 14.5618 98.9971 14.0291C99.9006 13.4964 100.923 13.2301 102.065 13.2301C102.794 13.2301 103.472 13.3324 104.098 13.5369C104.724 13.7415 105.283 14.0419 105.773 14.4382C106.263 14.8303 106.665 15.3118 106.981 15.8828C107.3 16.4496 107.509 17.0973 107.607 17.826ZM111.631 13.4091V26.5H109.317V13.4091H111.631ZM117.933 26.6918C116.974 26.6918 116.143 26.4808 115.44 26.0589C114.737 25.6371 114.191 25.0469 113.803 24.2884C113.42 23.5298 113.228 22.6435 113.228 21.6293C113.228 20.6151 113.42 19.7266 113.803 18.9638C114.191 18.201 114.737 17.6087 115.44 17.1868C116.143 16.7649 116.974 16.554 117.933 16.554C118.891 16.554 119.722 16.7649 120.426 17.1868C121.129 17.6087 121.672 18.201 122.056 18.9638C122.443 19.7266 122.637 20.6151 122.637 21.6293C122.637 22.6435 122.443 23.5298 122.056 24.2884C121.672 25.0469 121.129 25.6371 120.426 26.0589C119.722 26.4808 118.891 26.6918 117.933 26.6918ZM117.945 24.8381C118.465 24.8381 118.9 24.6953 119.249 24.4098C119.599 24.12 119.859 23.7322 120.029 23.2464C120.204 22.7607 120.291 22.2195 120.291 21.6229C120.291 21.022 120.204 20.4787 120.029 19.9929C119.859 19.5028 119.599 19.1129 119.249 18.8232C118.9 18.5334 118.465 18.3885 117.945 18.3885C117.413 18.3885 116.97 18.5334 116.616 18.8232C116.266 19.1129 116.004 19.5028 115.83 19.9929C115.659 20.4787 115.574 21.022 115.574 21.6229C115.574 22.2195 115.659 22.7607 115.83 23.2464C116.004 23.7322 116.266 24.12 116.616 24.4098C116.97 24.6953 117.413 24.8381 117.945 24.8381ZM130.499 22.3707V16.6818H132.813V26.5H130.569V24.755H130.467C130.245 25.3047 129.881 25.7543 129.374 26.1037C128.871 26.4531 128.251 26.6278 127.514 26.6278C126.87 26.6278 126.302 26.4851 125.807 26.1996C125.317 25.9098 124.934 25.4901 124.657 24.9403C124.38 24.3864 124.241 23.7173 124.241 22.9332V16.6818H126.555V22.5753C126.555 23.1974 126.726 23.6918 127.066 24.0582C127.407 24.4247 127.855 24.608 128.409 24.608C128.75 24.608 129.08 24.5249 129.4 24.3587C129.719 24.1925 129.981 23.9453 130.186 23.6172C130.395 23.2848 130.499 22.8693 130.499 22.3707ZM138.476 26.6726C137.705 26.6726 137.014 26.4744 136.405 26.0781C135.795 25.6818 135.314 25.1065 134.96 24.3523C134.607 23.598 134.43 22.6818 134.43 21.6037C134.43 20.5128 134.609 19.5923 134.967 18.8423C135.329 18.0881 135.817 17.5192 136.43 17.1357C137.044 16.7479 137.728 16.554 138.482 16.554C139.058 16.554 139.531 16.652 139.901 16.848C140.272 17.0398 140.566 17.272 140.783 17.5447C141.001 17.8132 141.169 18.0668 141.288 18.3054H141.384V13.4091H143.705V26.5H141.429V24.9531H141.288C141.169 25.1918 140.996 25.4453 140.771 25.7138C140.545 25.978 140.246 26.2038 139.876 26.3913C139.505 26.5788 139.038 26.6726 138.476 26.6726ZM139.121 24.7741C139.611 24.7741 140.029 24.642 140.374 24.3778C140.719 24.1094 140.982 23.7365 141.16 23.2592C141.339 22.782 141.429 22.2259 141.429 21.5909C141.429 20.956 141.339 20.4041 141.16 19.9354C140.986 19.4666 140.726 19.1023 140.381 18.8423C140.04 18.5824 139.62 18.4524 139.121 18.4524C138.606 18.4524 138.175 18.5866 137.83 18.8551C137.485 19.1236 137.225 19.4943 137.05 19.9673C136.876 20.4403 136.788 20.9815 136.788 21.5909C136.788 22.2045 136.876 22.7521 137.05 23.2337C137.229 23.7109 137.491 24.0881 137.837 24.3651C138.186 24.6378 138.614 24.7741 139.121 24.7741Z" fill="#2E2E37"/>
<defs>
<linearGradient id="paint0_linear_11_355" x1="20.5" y1="40" x2="20.5" y2="0" gradientUnits="userSpaceOnUse">
<stop offset="0.185418" stop-color="#4C3CC6"/>
<stop offset="1" stop-color="#7E60F8"/>
</linearGradient>
<linearGradient id="paint1_linear_11_355" x1="20.5" y1="0" x2="20.5" y2="40" gradientUnits="userSpaceOnUse">
<stop stop-color="white" stop-opacity="0.7"/>
<stop offset="1" stop-color="white" stop-opacity="0"/>
</linearGradient>
<linearGradient id="paint2_linear_11_355" x1="20.5" y1="16" x2="20.5" y2="31" gradientUnits="userSpaceOnUse">
<stop stop-color="white"/>
<stop offset="1" stop-color="#B7ABEB"/>
</linearGradient>
<linearGradient id="paint3_linear_11_355" x1="20.5" y1="11.8182" x2="20.5" y2="28.1818" gradientUnits="userSpaceOnUse">
<stop stop-color="white"/>
<stop offset="1" stop-color="white" stop-opacity="0"/>
</linearGradient>
</defs>
</svg>
