<svg width="19" height="18" viewBox="0 0 19 18" fill="none" xmlns="http://www.w3.org/2000/svg">
<path d="M17.1258 9.17493C17.1258 8.52743 17.0722 8.05493 16.9561 7.56494H9.4115V10.4874H13.84C13.7508 11.2137 13.2686 12.3074 12.1972 13.0424L12.1822 13.1402L14.5676 14.9513L14.7329 14.9674C16.2507 13.5937 17.1258 11.5724 17.1258 9.17493Z" fill="#4285F4"/>
<path d="M9.41098 16.875C11.5806 16.875 13.402 16.175 14.7324 14.9675L12.1967 13.0424C11.5181 13.5062 10.6074 13.8299 9.41098 13.8299C7.28601 13.8299 5.48246 12.4562 4.83954 10.5574L4.7453 10.5653L2.26486 12.4465L2.23242 12.5349C3.55383 15.1074 6.26811 16.875 9.41098 16.875Z" fill="#34A853"/>
<path d="M4.84004 10.5575C4.6704 10.0675 4.57223 9.54245 4.57223 8.99997C4.57223 8.45744 4.6704 7.93246 4.83112 7.44247L4.82662 7.33811L2.31509 5.42664L2.23291 5.46494C1.6883 6.53245 1.37579 7.73123 1.37579 8.99997C1.37579 10.2687 1.6883 11.4674 2.23291 12.5349L4.84004 10.5575Z" fill="#FBBC05"/>
<path d="M9.41103 4.16998C10.9199 4.16998 11.9378 4.80873 12.5182 5.34251L14.786 3.1725C13.3932 1.90375 11.5806 1.125 9.41103 1.125C6.26814 1.125 3.55384 2.89249 2.23242 5.46497L4.83063 7.44249C5.48248 5.54375 7.28604 4.16998 9.41103 4.16998Z" fill="#EB4335"/>
</svg>
